<svg width="25" height="25" viewBox="0 0 25 25" fill="none" xmlns="http://www.w3.org/2000/svg">
<path d="M3.21797 12.618C3.29676 12.6771 3.38642 12.7201 3.48183 12.7445C3.57724 12.7689 3.67653 12.7744 3.77403 12.7604C3.87154 12.7465 3.96534 12.7135 4.05009 12.6633C4.13484 12.6131 4.20887 12.5468 4.26797 12.468C4.72206 11.8625 5.31088 11.3711 5.9878 11.0326C6.66472 10.6942 7.41115 10.518 8.16797 10.518C8.92479 10.518 9.67121 10.6942 10.3481 11.0326C11.0251 11.3711 11.6139 11.8625 12.068 12.468C12.1875 12.6269 12.3652 12.732 12.5621 12.7599C12.759 12.7879 12.959 12.7365 13.118 12.617C13.1747 12.5749 13.2249 12.5246 13.267 12.468C13.7211 11.8625 14.3099 11.3711 14.9869 11.0326C15.6638 10.6942 16.4102 10.518 17.167 10.518C17.9239 10.518 18.6703 10.6942 19.3472 11.0326C20.0241 11.3711 20.6129 11.8625 21.067 12.468C21.1865 12.6271 21.3643 12.7322 21.5613 12.7603C21.7583 12.7883 21.9584 12.737 22.1175 12.6175C22.2766 12.498 22.3818 12.3202 22.4098 12.1232C22.4379 11.9262 22.3865 11.7262 22.267 11.567C21.6032 10.677 20.7179 9.9763 19.6992 9.53452C20.2577 9.02465 20.6489 8.35786 20.8217 7.62165C20.9944 6.88543 20.9405 6.1142 20.667 5.40917C20.3936 4.70413 19.9134 4.09824 19.2895 3.671C18.6655 3.24376 17.927 3.01514 17.1708 3.01514C16.4146 3.01514 15.676 3.24376 15.0521 3.671C14.4282 4.09824 13.948 4.70413 13.6745 5.40917C13.4011 6.1142 13.3472 6.88543 13.5199 7.62165C13.6926 8.35786 14.0839 9.02465 14.6423 9.53452C13.9068 9.85257 13.2387 10.3079 12.6736 10.8761C12.1085 10.3079 11.4404 9.85257 10.7048 9.53452C11.2633 9.02465 11.6546 8.35786 11.8273 7.62165C12 6.88543 11.9461 6.1142 11.6727 5.40917C11.3992 4.70413 10.919 4.09824 10.2951 3.671C9.67114 3.24376 8.93261 3.01514 8.17641 3.01514C7.4202 3.01514 6.68167 3.24376 6.05772 3.671C5.43378 4.09824 4.95358 4.70413 4.68014 5.40917C4.40671 6.1142 4.35281 6.88543 4.52553 7.62165C4.69825 8.35786 5.08951 9.02465 5.64797 9.53452C4.62483 9.97486 3.73519 10.676 3.06797 11.568C3.00887 11.6468 2.96588 11.7364 2.94143 11.8318C2.91699 11.9272 2.91158 12.0265 2.92551 12.124C2.93944 12.2215 2.97243 12.3153 3.02261 12.4001C3.07279 12.4848 3.13918 12.5589 3.21797 12.618ZM17.168 4.51796C17.613 4.51796 18.048 4.64992 18.418 4.89715C18.788 5.14439 19.0764 5.49579 19.2467 5.90692C19.417 6.31806 19.4616 6.77046 19.3747 7.20691C19.2879 7.64337 19.0736 8.04428 18.759 8.35895C18.4443 8.67362 18.0434 8.88791 17.6069 8.97473C17.1705 9.06154 16.7181 9.01699 16.3069 8.84669C15.8958 8.67639 15.5444 8.388 15.2972 8.01799C15.0499 7.64798 14.918 7.21297 14.918 6.76796C14.918 6.17122 15.155 5.59893 15.577 5.17697C15.9989 4.75501 16.5712 4.51796 17.168 4.51796ZM8.16797 4.51796C8.61298 4.51796 9.04799 4.64992 9.418 4.89715C9.78801 5.14439 10.0764 5.49579 10.2467 5.90692C10.417 6.31806 10.4616 6.77046 10.3747 7.20691C10.2879 7.64337 10.0736 8.04428 9.75896 8.35895C9.44429 8.67362 9.04338 8.88791 8.60692 8.97473C8.17046 9.06154 7.71806 9.01699 7.30693 8.84669C6.8958 8.67639 6.5444 8.388 6.29716 8.01799C6.04993 7.64798 5.91797 7.21297 5.91797 6.76796C5.91797 6.17122 6.15502 5.59893 6.57698 5.17697C6.99894 4.75501 7.57123 4.51796 8.16797 4.51796ZM19.6992 19.2845C20.2577 18.7747 20.6489 18.1079 20.8217 17.3716C20.9944 16.6354 20.9405 15.8642 20.667 15.1592C20.3936 14.4541 19.9134 13.8482 19.2895 13.421C18.6655 12.9938 17.927 12.7651 17.1708 12.7651C16.4146 12.7651 15.676 12.9938 15.0521 13.421C14.4282 13.8482 13.948 14.4541 13.6745 15.1592C13.4011 15.8642 13.3472 16.6354 13.5199 17.3716C13.6926 18.1079 14.0839 18.7747 14.6423 19.2845C13.9068 19.6026 13.2387 20.0579 12.6736 20.6261C12.1085 20.0579 11.4404 19.6026 10.7048 19.2845C11.2633 18.7747 11.6546 18.1079 11.8273 17.3716C12 16.6354 11.9461 15.8642 11.6727 15.1592C11.3992 14.4541 10.919 13.8482 10.2951 13.421C9.67114 12.9938 8.93261 12.7651 8.17641 12.7651C7.4202 12.7651 6.68167 12.9938 6.05772 13.421C5.43378 13.8482 4.95358 14.4541 4.68014 15.1592C4.40671 15.8642 4.35281 16.6354 4.52553 17.3716C4.69825 18.1079 5.08951 18.7747 5.64797 19.2845C4.62483 19.7249 3.73519 20.426 3.06797 21.318C3.00887 21.3968 2.96588 21.4864 2.94143 21.5818C2.91699 21.6772 2.91158 21.7765 2.92551 21.874C2.93944 21.9715 2.97243 22.0653 3.02261 22.1501C3.07279 22.2348 3.13918 22.3089 3.21797 22.368C3.29676 22.4271 3.38642 22.4701 3.48183 22.4945C3.57724 22.5189 3.67653 22.5244 3.77403 22.5104C3.87154 22.4965 3.96534 22.4635 4.05009 22.4133C4.13484 22.3631 4.20887 22.2968 4.26797 22.218C4.72206 21.6125 5.31088 21.1211 5.9878 20.7826C6.66472 20.4442 7.41115 20.268 8.16797 20.268C8.92479 20.268 9.67121 20.4442 10.3481 20.7826C11.0251 21.1211 11.6139 21.6125 12.068 22.218C12.1875 22.3769 12.3652 22.482 12.5621 22.5099C12.759 22.5379 12.959 22.4865 13.118 22.367C13.1747 22.3249 13.2249 22.2746 13.267 22.218C13.7211 21.6125 14.3099 21.1211 14.9869 20.7826C15.6638 20.4442 16.4102 20.268 17.167 20.268C17.9239 20.268 18.6703 20.4442 19.3472 20.7826C20.0241 21.1211 20.6129 21.6125 21.067 22.218C21.1865 22.3771 21.3643 22.4822 21.5613 22.5103C21.7583 22.5383 21.9584 22.487 22.1175 22.3675C22.2766 22.248 22.3818 22.0702 22.4098 21.8732C22.4379 21.6762 22.3865 21.4762 22.267 21.317C21.6032 20.427 20.7179 19.7263 19.6992 19.2845ZM8.16797 14.268C8.61298 14.268 9.04799 14.3999 9.418 14.6472C9.78801 14.8944 10.0764 15.2458 10.2467 15.6569C10.417 16.0681 10.4616 16.5205 10.3747 16.9569C10.2879 17.3934 10.0736 17.7943 9.75896 18.109C9.44429 18.4236 9.04338 18.6379 8.60692 18.7247C8.17046 18.8115 7.71806 18.767 7.30693 18.5967C6.8958 18.4264 6.5444 18.138 6.29716 17.768C6.04993 17.398 5.91797 16.963 5.91797 16.518C5.91797 15.9212 6.15502 15.3489 6.57698 14.927C6.99894 14.505 7.57123 14.268 8.16797 14.268ZM17.168 14.268C17.613 14.268 18.048 14.3999 18.418 14.6472C18.788 14.8944 19.0764 15.2458 19.2467 15.6569C19.417 16.0681 19.4616 16.5205 19.3747 16.9569C19.2879 17.3934 19.0736 17.7943 18.759 18.109C18.4443 18.4236 18.0434 18.6379 17.6069 18.7247C17.1705 18.8115 16.7181 18.767 16.3069 18.5967C15.8958 18.4264 15.5444 18.138 15.2972 17.768C15.0499 17.398 14.918 16.963 14.918 16.518C14.918 15.9212 15.155 15.3489 15.577 14.927C15.9989 14.505 16.5712 14.268 17.168 14.268Z" fill="#6F2268"/>
</svg>
