<svg width="21" height="21" viewBox="0 0 21 21" fill="none" xmlns="http://www.w3.org/2000/svg">
<path d="M17.8334 7.26476C18.7006 9.07867 18.8653 11.1495 18.2955 13.0777C17.7257 15.0059 16.4619 16.6546 14.748 17.7058C13.0341 18.7569 10.9915 19.1359 9.01459 18.7697C7.03765 18.4034 5.26645 17.3179 4.04283 15.7225C2.81921 14.1271 2.22992 12.135 2.38869 10.1307C2.54746 8.12642 3.44304 6.25197 4.90257 4.86914C6.3621 3.48631 8.28213 2.69314 10.2921 2.6427C12.302 2.59226 14.2594 3.28813 15.7865 4.59601L17.5576 2.82414C17.6749 2.70686 17.8339 2.64098 17.9998 2.64098C18.1656 2.64098 18.3247 2.70686 18.442 2.82414C18.5592 2.94141 18.6251 3.10047 18.6251 3.26633C18.6251 3.43218 18.5592 3.59124 18.442 3.70851L10.942 11.2085C10.8247 11.3258 10.6656 11.3917 10.4998 11.3917C10.3339 11.3917 10.1749 11.3258 10.0576 11.2085C9.9403 11.0912 9.87442 10.9322 9.87442 10.7663C9.87442 10.6005 9.9403 10.4414 10.0576 10.3241L12.2232 8.15851C11.6363 7.77035 10.9356 7.59163 10.2344 7.65128C9.5333 7.71094 8.87283 8.00547 8.35993 8.4872C7.84703 8.96894 7.51172 9.60967 7.40829 10.3057C7.30486 11.0017 7.43936 11.7123 7.79001 12.3223C8.14066 12.9324 8.68695 13.4062 9.34043 13.6672C9.99391 13.9281 10.7163 13.9609 11.3908 13.7602C12.0652 13.5595 12.6521 13.137 13.0566 12.5612C13.461 11.9854 13.6593 11.2899 13.6193 10.5874C13.6147 10.5053 13.6263 10.4232 13.6534 10.3456C13.6806 10.268 13.7227 10.1965 13.7775 10.1352C13.8323 10.0739 13.8986 10.024 13.9726 9.98829C14.0467 9.95262 14.1271 9.93188 14.2091 9.92726C14.3749 9.91794 14.5376 9.97485 14.6614 10.0855C14.7227 10.1402 14.7726 10.2065 14.8083 10.2806C14.8439 10.3547 14.8647 10.435 14.8693 10.5171C14.9263 11.5115 14.6423 12.4955 14.0642 13.3066C13.4862 14.1177 12.6487 14.7072 11.6901 14.9778C10.7316 15.2484 9.70944 15.1839 8.79257 14.7948C7.8757 14.4058 7.11902 13.7156 6.64759 12.8382C6.17616 11.9609 6.0182 10.9489 6.19981 9.96962C6.38143 8.99033 6.89175 8.10232 7.64643 7.45236C8.40112 6.8024 9.35498 6.4294 10.3504 6.39501C11.3458 6.36061 12.3231 6.66688 13.1209 7.2632L14.8982 5.48586C13.5957 4.40445 11.9396 3.84239 10.2479 3.90764C8.55628 3.97288 6.94837 4.66083 5.73304 5.83935C4.5177 7.01787 3.78063 8.60385 3.66339 10.2927C3.54615 11.9815 4.05702 13.6542 5.09786 14.9893C6.1387 16.3244 7.63613 17.228 9.30254 17.5263C10.969 17.8247 12.6868 17.4968 14.1263 16.6058C15.5657 15.7147 16.6252 14.3232 17.1012 12.6986C17.5772 11.074 17.4362 9.33081 16.7052 7.80383C16.6337 7.65423 16.6246 7.48236 16.6799 7.32603C16.7351 7.1697 16.8502 7.04172 16.9998 6.97023C17.1494 6.89875 17.3212 6.88962 17.4776 6.94486C17.6339 7.00009 17.7619 7.11517 17.8334 7.26476Z" fill="#383838"/>
</svg>
