<svg width="25" height="25" viewBox="0 0 25 25" fill="none" xmlns="http://www.w3.org/2000/svg">
<path d="M21.5692 6.05656L12.5692 3.05656C12.4153 3.00524 12.2488 3.00524 12.0948 3.05656L3.09484 6.05656C2.9455 6.10634 2.81562 6.20185 2.72358 6.32956C2.63154 6.45727 2.58202 6.6107 2.58203 6.76812V14.2681C2.58203 14.467 2.66105 14.6578 2.8017 14.7985C2.94235 14.9391 3.13312 15.0181 3.33203 15.0181C3.53094 15.0181 3.72171 14.9391 3.86236 14.7985C4.00301 14.6578 4.08203 14.467 4.08203 14.2681V7.80875L7.23109 8.85781C6.39443 10.2095 6.12837 11.838 6.49135 13.3857C6.85432 14.9333 7.81665 16.2737 9.16703 17.1125C7.47953 17.7744 6.02078 18.9716 4.95391 20.6084C4.89842 20.6909 4.85988 20.7836 4.84053 20.8811C4.82117 20.9786 4.82139 21.0789 4.84116 21.1763C4.86094 21.2737 4.89988 21.3662 4.95572 21.4485C5.01156 21.5307 5.08319 21.601 5.16644 21.6553C5.24969 21.7096 5.34291 21.7468 5.44066 21.7648C5.53842 21.7827 5.63878 21.7811 5.73589 21.7599C5.833 21.7387 5.92494 21.6985 6.00636 21.6415C6.08778 21.5845 6.15705 21.5118 6.21016 21.4278C7.62297 19.2603 9.85422 18.0181 12.332 18.0181C14.8098 18.0181 17.0411 19.2603 18.4539 21.4278C18.5639 21.5913 18.7338 21.7049 18.9269 21.7441C19.1201 21.7833 19.3209 21.745 19.4859 21.6373C19.6509 21.5297 19.767 21.3614 19.809 21.1689C19.8509 20.9763 19.8154 20.775 19.7102 20.6084C18.6433 18.9716 17.1789 17.7744 15.497 17.1125C16.8461 16.2738 17.8075 14.9342 18.1704 13.3877C18.5334 11.8411 18.2681 10.2138 17.433 8.8625L21.5692 7.48437C21.7186 7.43462 21.8485 7.33912 21.9406 7.21141C22.0327 7.0837 22.0822 6.93025 22.0822 6.77281C22.0822 6.61537 22.0327 6.46192 21.9406 6.33421C21.8485 6.2065 21.7186 6.111 21.5692 6.06125V6.05656ZM16.832 12.0181C16.8322 12.7296 16.6638 13.4309 16.3404 14.0646C16.0171 14.6983 15.5481 15.2463 14.972 15.6637C14.3958 16.081 13.7289 16.3558 13.026 16.4656C12.3231 16.5753 11.6042 16.5168 10.9283 16.2948C10.2523 16.0729 9.63866 15.6939 9.13758 15.1889C8.63651 14.6838 8.26231 14.0672 8.0457 13.3896C7.82908 12.7119 7.77622 11.9926 7.89145 11.2905C8.00668 10.5885 8.28672 9.92378 8.70859 9.35094L12.0948 10.4759C12.2488 10.5273 12.4153 10.5273 12.5692 10.4759L15.9555 9.35094C16.5253 10.1234 16.8325 11.0582 16.832 12.0181ZM12.332 8.97781L5.70391 6.76812L12.332 4.55843L18.9602 6.76812L12.332 8.97781Z" fill="#6F2268"/>
</svg>
