<svg width="24" height="25" viewBox="0 0 24 25" fill="none" xmlns="http://www.w3.org/2000/svg">
<path d="M22.5 20.2681H21V9.76807C21 9.37024 20.842 8.98871 20.5607 8.70741C20.2794 8.4261 19.8978 8.26807 19.5 8.26807H13.5V3.76807C13.5002 3.49644 13.4266 3.22986 13.2871 2.99678C13.1476 2.76371 12.9474 2.57289 12.708 2.44468C12.4685 2.31648 12.1987 2.2557 11.9274 2.26885C11.6561 2.28199 11.3935 2.36856 11.1675 2.51931L3.6675 7.51806C3.46176 7.65533 3.29315 7.84135 3.17669 8.05955C3.06023 8.27775 2.99953 8.52136 3 8.76869V20.2681H1.5C1.30109 20.2681 1.11032 20.3471 0.96967 20.4877C0.829018 20.6284 0.75 20.8192 0.75 21.0181C0.75 21.217 0.829018 21.4077 0.96967 21.5484C1.11032 21.6891 1.30109 21.7681 1.5 21.7681H22.5C22.6989 21.7681 22.8897 21.6891 23.0303 21.5484C23.171 21.4077 23.25 21.217 23.25 21.0181C23.25 20.8192 23.171 20.6284 23.0303 20.4877C22.8897 20.3471 22.6989 20.2681 22.5 20.2681ZM19.5 9.76807V20.2681H13.5V9.76807H19.5ZM4.5 8.76869L12 3.76807V20.2681H4.5V8.76869ZM10.5 11.2681V12.7681C10.5 12.967 10.421 13.1577 10.2803 13.2984C10.1397 13.439 9.94891 13.5181 9.75 13.5181C9.55109 13.5181 9.36032 13.439 9.21967 13.2984C9.07902 13.1577 9 12.967 9 12.7681V11.2681C9 11.0692 9.07902 10.8784 9.21967 10.7377C9.36032 10.5971 9.55109 10.5181 9.75 10.5181C9.94891 10.5181 10.1397 10.5971 10.2803 10.7377C10.421 10.8784 10.5 11.0692 10.5 11.2681ZM7.5 11.2681V12.7681C7.5 12.967 7.42098 13.1577 7.28033 13.2984C7.13968 13.439 6.94891 13.5181 6.75 13.5181C6.55109 13.5181 6.36032 13.439 6.21967 13.2984C6.07902 13.1577 6 12.967 6 12.7681V11.2681C6 11.0692 6.07902 10.8784 6.21967 10.7377C6.36032 10.5971 6.55109 10.5181 6.75 10.5181C6.94891 10.5181 7.13968 10.5971 7.28033 10.7377C7.42098 10.8784 7.5 11.0692 7.5 11.2681ZM7.5 16.5181V18.0181C7.5 18.217 7.42098 18.4077 7.28033 18.5484C7.13968 18.689 6.94891 18.7681 6.75 18.7681C6.55109 18.7681 6.36032 18.689 6.21967 18.5484C6.07902 18.4077 6 18.217 6 18.0181V16.5181C6 16.3192 6.07902 16.1284 6.21967 15.9877C6.36032 15.8471 6.55109 15.7681 6.75 15.7681C6.94891 15.7681 7.13968 15.8471 7.28033 15.9877C7.42098 16.1284 7.5 16.3192 7.5 16.5181ZM10.5 16.5181V18.0181C10.5 18.217 10.421 18.4077 10.2803 18.5484C10.1397 18.689 9.94891 18.7681 9.75 18.7681C9.55109 18.7681 9.36032 18.689 9.21967 18.5484C9.07902 18.4077 9 18.217 9 18.0181V16.5181C9 16.3192 9.07902 16.1284 9.21967 15.9877C9.36032 15.8471 9.55109 15.7681 9.75 15.7681C9.94891 15.7681 10.1397 15.8471 10.2803 15.9877C10.421 16.1284 10.5 16.3192 10.5 16.5181Z" fill="#6F2268"/>
</svg>
