<svg width="21" height="21" viewBox="0 0 21 21" fill="none" xmlns="http://www.w3.org/2000/svg">
<g clip-path="url(#clip0_421_31962)">
<path d="M8 5.76807C8 6.43111 8.26339 7.06699 8.73223 7.53583C9.20107 8.00467 9.83696 8.26807 10.5 8.26807C11.163 8.26807 11.7989 8.00467 12.2678 7.53583C12.7366 7.06699 13 6.43111 13 5.76807C13 5.10503 12.7366 4.46914 12.2678 4.0003C11.7989 3.53146 11.163 3.26807 10.5 3.26807C9.83696 3.26807 9.20107 3.53146 8.73223 4.0003C8.26339 4.46914 8 5.10503 8 5.76807Z" stroke="#5C5C5C" stroke-width="1.25" stroke-linecap="round" stroke-linejoin="round"/>
<path d="M6.19763 8.26807H14.806C15.0011 8.26804 15.1901 8.33651 15.34 8.46154C15.4898 8.58656 15.591 8.76022 15.626 8.95223L16.9901 16.4522C17.012 16.5723 17.0072 16.6958 16.9761 16.8138C16.9449 16.9319 16.8883 17.0416 16.81 17.1354C16.7318 17.2291 16.634 17.3045 16.5234 17.3562C16.4128 17.4079 16.2922 17.4348 16.1701 17.4347H4.83346C4.71138 17.4348 4.59079 17.4079 4.48021 17.3562C4.36963 17.3045 4.27177 17.2291 4.19355 17.1354C4.11533 17.0416 4.05865 16.9319 4.02753 16.8138C3.99641 16.6958 3.99161 16.5723 4.01346 16.4522L5.37763 8.95223C5.41256 8.76022 5.51378 8.58656 5.66363 8.46154C5.81348 8.33651 6.00246 8.26804 6.19763 8.26807Z" stroke="#5C5C5C" stroke-width="1.25" stroke-linecap="round" stroke-linejoin="round"/>
</g>
<defs>
<clipPath id="clip0_421_31962">
<rect width="20" height="20" fill="white" transform="translate(0.5 0.768066)"/>
</clipPath>
</defs>
</svg>
