<svg width="20" height="20" viewBox="0 0 20 20" fill="none" xmlns="http://www.w3.org/2000/svg">
<g clip-path="url(#clip0_449_36668)">
<path d="M9.16797 13.3333C9.16797 13.5543 9.25577 13.7663 9.41205 13.9226C9.56833 14.0789 9.78029 14.1667 10.0013 14.1667C10.2223 14.1667 10.4343 14.0789 10.5906 13.9226C10.7468 13.7663 10.8346 13.5543 10.8346 13.3333C10.8346 13.1123 10.7468 12.9004 10.5906 12.7441C10.4343 12.5878 10.2223 12.5 10.0013 12.5C9.78029 12.5 9.56833 12.5878 9.41205 12.7441C9.25577 12.9004 9.16797 13.1123 9.16797 13.3333Z" stroke="#8F8F8F" stroke-width="1.25" stroke-linecap="round" stroke-linejoin="round"/>
<path d="M10.0013 17.5H5.83464C5.39261 17.5 4.96868 17.3244 4.65612 17.0118C4.34356 16.6992 4.16797 16.2753 4.16797 15.8333V10.8333C4.16797 10.3913 4.34356 9.96734 4.65612 9.65478C4.96868 9.34222 5.39261 9.16663 5.83464 9.16663H14.168C14.61 9.16663 15.0339 9.34222 15.3465 9.65478C15.659 9.96734 15.8346 10.3913 15.8346 10.8333" stroke="#8F8F8F" stroke-width="1.25" stroke-linecap="round" stroke-linejoin="round"/>
<path d="M6.66797 9.16667V5.83333C6.66797 4.94928 7.01916 4.10143 7.64428 3.47631C8.2694 2.85119 9.11725 2.5 10.0013 2.5C10.8854 2.5 11.7332 2.85119 12.3583 3.47631C12.9834 4.10143 13.3346 4.94928 13.3346 5.83333V9.16667" stroke="#8F8F8F" stroke-width="1.25" stroke-linecap="round" stroke-linejoin="round"/>
<path d="M13.332 18.3333L17.4987 14.1666" stroke="#8F8F8F" stroke-width="1.25" stroke-linecap="round" stroke-linejoin="round"/>
<path d="M17.5 17.9166V14.1666H13.75" stroke="#8F8F8F" stroke-width="1.25" stroke-linecap="round" stroke-linejoin="round"/>
</g>
<defs>
<clipPath id="clip0_449_36668">
<rect width="20" height="20" fill="white"/>
</clipPath>
</defs>
</svg>
