<svg width="21" height="20" viewBox="0 0 21 20" fill="none" xmlns="http://www.w3.org/2000/svg">
<g clip-path="url(#clip0_449_36650)">
<path d="M11.7873 17.1383C11.424 17.28 11.0506 17.4008 10.669 17.5C9.37165 17.1635 8.1552 16.5696 7.09192 15.7537C6.02865 14.9378 5.14023 13.9165 4.47947 12.7504C3.8187 11.5844 3.39908 10.2974 3.24553 8.96598C3.09198 7.63456 3.20764 6.28585 3.58564 5C6.18191 5.11881 8.72244 4.22215 10.669 2.5C12.6155 4.22215 15.156 5.11881 17.7523 5C18.2579 6.72051 18.2916 8.54534 17.8498 10.2833" stroke="#8F8F8F" stroke-width="1.25" stroke-linecap="round" stroke-linejoin="round"/>
<path d="M16.5026 13.3334L14.8359 15.8334H18.1693L16.5026 18.3334" stroke="#8F8F8F" stroke-width="1.25" stroke-linecap="round" stroke-linejoin="round"/>
</g>
<defs>
<clipPath id="clip0_449_36650">
<rect width="20" height="20" fill="white" transform="translate(0.667969)"/>
</clipPath>
</defs>
</svg>
