<svg width="21" height="20" viewBox="0 0 21 20" fill="none" xmlns="http://www.w3.org/2000/svg">
<path d="M5.125 13.425V6.57496C6.2 6.29996 7 5.33329 7 4.16663C7 2.78329 5.88333 1.66663 4.5 1.66663C3.11667 1.66663 2 2.78329 2 4.16663C2 5.33329 2.8 6.29996 3.875 6.57496V13.4166C2.8 13.7 2 14.6666 2 15.8333C2 17.2166 3.11667 18.3333 4.5 18.3333C5.88333 18.3333 7 17.2166 7 15.8333C7 14.6666 6.2 13.7 5.125 13.425Z" fill="#8F8F8F"/>
<path d="M16.7904 13.425V5.41669C16.7904 4.15002 15.7654 3.12502 14.4987 3.12502H12.057L13.232 2.15002C13.4987 1.92502 13.532 1.53336 13.3154 1.26669C13.0904 1.00002 12.6987 0.966691 12.432 1.18336L9.93203 3.26669C9.79036 3.38336 9.70703 3.55836 9.70703 3.75002C9.70703 3.94169 9.79036 4.10836 9.93203 4.23336L12.432 6.31669C12.5487 6.41669 12.6904 6.45836 12.832 6.45836C13.007 6.45836 13.1904 6.38336 13.3154 6.23336C13.5404 5.96669 13.4987 5.57502 13.232 5.35002L12.057 4.37502H14.4987C15.0737 4.37502 15.5404 4.84169 15.5404 5.41669V13.425C14.4654 13.7 13.6654 14.6667 13.6654 15.8334C13.6654 17.2167 14.782 18.3334 16.1654 18.3334C17.5487 18.3334 18.6654 17.2167 18.6654 15.8334C18.6654 14.6667 17.8654 13.7 16.7904 13.425Z" fill="#8F8F8F"/>
</svg>
