<svg width="21" height="20" viewBox="0 0 21 20" fill="none" xmlns="http://www.w3.org/2000/svg">
<g clip-path="url(#clip0_449_36684)">
<path d="M9 4.16667C9 3.72464 9.17559 3.30072 9.48816 2.98816C9.80072 2.67559 10.2246 2.5 10.6667 2.5C11.1087 2.5 11.5326 2.67559 11.8452 2.98816C12.1577 3.30072 12.3333 3.72464 12.3333 4.16667C13.2903 4.61919 14.1062 5.32361 14.6934 6.20442C15.2806 7.08523 15.617 8.10923 15.6667 9.16667V11.6667C15.7294 12.1848 15.9129 12.6809 16.2023 13.1151C16.4918 13.5493 16.8792 13.9095 17.3333 14.1667H4C4.45412 13.9095 4.84151 13.5493 5.13099 13.1151C5.42047 12.6809 5.60395 12.1848 5.66667 11.6667V9.16667C5.7163 8.10923 6.05275 7.08523 6.63996 6.20442C7.22717 5.32361 8.04299 4.61919 9 4.16667Z" stroke="#8F8F8F" stroke-width="1.25" stroke-linecap="round" stroke-linejoin="round"/>
<path d="M8.16797 14.1666V15C8.16797 15.663 8.43136 16.2989 8.9002 16.7677C9.36904 17.2366 10.0049 17.5 10.668 17.5C11.331 17.5 11.9669 17.2366 12.4357 16.7677C12.9046 16.2989 13.168 15.663 13.168 15V14.1666" stroke="#8F8F8F" stroke-width="1.25" stroke-linecap="round" stroke-linejoin="round"/>
<path d="M18.1682 5.60583C17.6216 4.41688 16.8278 3.35808 15.8398 2.5" stroke="#8F8F8F" stroke-width="1.25" stroke-linecap="round" stroke-linejoin="round"/>
<path d="M3.16797 5.60583C3.71409 4.41703 4.50726 3.35825 5.49464 2.5" stroke="#8F8F8F" stroke-width="1.25" stroke-linecap="round" stroke-linejoin="round"/>
</g>
<defs>
<clipPath id="clip0_449_36684">
<rect width="20" height="20" fill="white" transform="translate(0.667969)"/>
</clipPath>
</defs>
</svg>
