<svg width="18" height="19" viewBox="0 0 18 19" fill="none" xmlns="http://www.w3.org/2000/svg">
<path d="M9.84375 13.4238C9.84375 13.5907 9.79427 13.7538 9.70156 13.8926C9.60884 14.0313 9.47707 14.1395 9.32289 14.2034C9.16872 14.2672 8.99907 14.2839 8.8354 14.2514C8.67172 14.2188 8.52138 14.1384 8.40338 14.0204C8.28538 13.9024 8.20502 13.7521 8.17247 13.5884C8.13991 13.4248 8.15662 13.2551 8.22048 13.1009C8.28434 12.9468 8.39249 12.815 8.53124 12.7223C8.66999 12.6296 8.83313 12.5801 9 12.5801C9.22378 12.5801 9.43839 12.669 9.59662 12.8272C9.75486 12.9854 9.84375 13.2001 9.84375 13.4238ZM9 5.83008C7.44891 5.83008 6.1875 6.96562 6.1875 8.36133V8.64258C6.1875 8.79176 6.24677 8.93484 6.35226 9.04033C6.45775 9.14581 6.60082 9.20508 6.75 9.20508C6.89919 9.20508 7.04226 9.14581 7.14775 9.04033C7.25324 8.93484 7.3125 8.79176 7.3125 8.64258V8.36133C7.3125 7.58789 8.06977 6.95508 9 6.95508C9.93024 6.95508 10.6875 7.58789 10.6875 8.36133C10.6875 9.13477 9.93024 9.76758 9 9.76758C8.85082 9.76758 8.70775 9.82684 8.60226 9.93233C8.49677 10.0378 8.4375 10.1809 8.4375 10.3301V10.8926C8.4375 11.0418 8.49677 11.1848 8.60226 11.2903C8.70775 11.3958 8.85082 11.4551 9 11.4551C9.14919 11.4551 9.29226 11.3958 9.39775 11.2903C9.50324 11.1848 9.5625 11.0418 9.5625 10.8926V10.842C10.845 10.6064 11.8125 9.58336 11.8125 8.36133C11.8125 6.96562 10.5511 5.83008 9 5.83008ZM16.3125 9.76758C16.3125 11.2139 15.8836 12.6277 15.0801 13.8302C14.2766 15.0327 13.1346 15.97 11.7984 16.5234C10.4622 17.0769 8.99189 17.2217 7.57341 16.9396C6.15492 16.6574 4.85196 15.961 3.82928 14.9383C2.80661 13.9156 2.11017 12.6127 1.82801 11.1942C1.54586 9.77569 1.69067 8.30539 2.24413 6.96921C2.7976 5.63302 3.73486 4.49096 4.9374 3.68746C6.13993 2.88395 7.55373 2.45508 9 2.45508C10.9388 2.45713 12.7975 3.2282 14.1685 4.59912C15.5394 5.97004 16.3105 7.82881 16.3125 9.76758ZM15.1875 9.76758C15.1875 8.54381 14.8246 7.34752 14.1447 6.32999C13.4648 5.31246 12.4985 4.51939 11.3679 4.05107C10.2372 3.58276 8.99314 3.46022 7.79288 3.69897C6.59262 3.93772 5.49012 4.52702 4.62478 5.39235C3.75944 6.25769 3.17014 7.3602 2.93139 8.56046C2.69265 9.76071 2.81518 11.0048 3.2835 12.1354C3.75182 13.2661 4.54488 14.2324 5.56241 14.9123C6.57994 15.5922 7.77623 15.9551 9 15.9551C10.6405 15.9532 12.2132 15.3007 13.3732 14.1407C14.5331 12.9808 15.1856 11.408 15.1875 9.76758Z" fill="#383838"/>
</svg>
