<svg width="1282" height="319" viewBox="0 0 1282 319" fill="none" xmlns="http://www.w3.org/2000/svg">
<path opacity="0.2" d="M30.0909 -263.234H1V-234.168M30.0909 -263.234V-234.168M30.0909 -263.234H59.1818M30.0909 -234.168H1M30.0909 -234.168V-205.101M30.0909 -234.168H59.1818M1 -234.168V-205.101M30.0909 -205.101H1M30.0909 -205.101V-176.034M30.0909 -205.101H59.1818M1 -205.101V-176.034M30.0909 -176.034H1M30.0909 -176.034V-146.968M30.0909 -176.034H59.1818M1 -176.034V-146.968M30.0909 -146.968H1M30.0909 -146.968V-117.901M30.0909 -146.968H59.1818M1 -146.968V-117.901M30.0909 -117.901H1M30.0909 -117.901V-88.8344M30.0909 -117.901H59.1818M1 -117.901V-88.8344M30.0909 -88.8344H1M30.0909 -88.8344V-59.7677M30.0909 -88.8344H59.1818M1 -88.8344V-59.7677M30.0909 -59.7677H1M30.0909 -59.7677V-30.7011M30.0909 -59.7677H59.1818M1 -59.7677V-30.7011M30.0909 -30.7011H1M30.0909 -30.7011V-1.63439M30.0909 -30.7011H59.1818M1 -30.7011V-1.63439M30.0909 -1.63439H1M30.0909 -1.63439V27.4323M30.0909 -1.63439H59.1818M1 -1.63439V27.4323M30.0909 27.4323H1M30.0909 27.4323V56.4989M30.0909 27.4323H59.1818M1 27.4323V56.4989M30.0909 56.4989H1M30.0909 56.4989V85.5656M30.0909 56.4989H59.1818M1 56.4989V85.5656M30.0909 85.5656H1M30.0909 85.5656V114.632M30.0909 85.5656H59.1818M1 85.5656V114.632M30.0909 114.632H1M30.0909 114.632V143.699M30.0909 114.632H59.1818M1 114.632V143.699M30.0909 143.699H1M30.0909 143.699V172.766M30.0909 143.699H59.1818M1 143.699V172.766M30.0909 172.766H1M30.0909 172.766V201.832M30.0909 172.766H59.1818M1 172.766V201.832M30.0909 201.832H1M30.0909 201.832V230.899M30.0909 201.832H59.1818M1 201.832V230.899M30.0909 230.899H1M30.0909 230.899V259.966M30.0909 230.899H59.1818M1 230.899V259.966M30.0909 259.966H1M30.0909 259.966V289.032M30.0909 259.966H59.1818M1 259.966V289.032M30.0909 289.032H1M30.0909 289.032V318.099M30.0909 289.032H59.1818M1 289.032V318.099H30.0909M30.0909 318.099H59.1818M59.1818 -263.234V-234.168M59.1818 -263.234H88.2727M59.1818 -234.168V-205.101M59.1818 -234.168H88.2727M59.1818 -205.101V-176.034M59.1818 -205.101H88.2727M59.1818 -176.034V-146.968M59.1818 -176.034H88.2727M59.1818 -146.968V-117.901M59.1818 -146.968H88.2727M59.1818 -117.901V-88.8344M59.1818 -117.901H88.2727M59.1818 -88.8344V-59.7677M59.1818 -88.8344H88.2727M59.1818 -59.7677V-30.7011M59.1818 -59.7677H88.2727M59.1818 -30.7011V-1.63439M59.1818 -30.7011H88.2727M59.1818 -1.63439V27.4323M59.1818 -1.63439H88.2727M59.1818 27.4323V56.4989M59.1818 27.4323H88.2727M59.1818 56.4989V85.5656M59.1818 56.4989H88.2727M59.1818 85.5656V114.632M59.1818 85.5656H88.2727M59.1818 114.632V143.699M59.1818 114.632H88.2727M59.1818 143.699V172.766M59.1818 143.699H88.2727M59.1818 172.766V201.832M59.1818 172.766H88.2727M59.1818 201.832V230.899M59.1818 201.832H88.2727M59.1818 230.899V259.966M59.1818 230.899H88.2727M59.1818 259.966V289.032M59.1818 259.966H88.2727M59.1818 289.032V318.099M59.1818 289.032H88.2727M59.1818 318.099H88.2727M88.2727 -263.234V-234.168M88.2727 -263.234H117.364M88.2727 -234.168V-205.101M88.2727 -234.168H117.364M88.2727 -205.101V-176.034M88.2727 -205.101H117.364M88.2727 -176.034V-146.968M88.2727 -176.034H117.364M88.2727 -146.968V-117.901M88.2727 -146.968H117.364M88.2727 -117.901V-88.8344M88.2727 -117.901H117.364M88.2727 -88.8344V-59.7677M88.2727 -88.8344H117.364M88.2727 -59.7677V-30.7011M88.2727 -59.7677H117.364M88.2727 -30.7011V-1.63439M88.2727 -30.7011H117.364M88.2727 -1.63439V27.4323M88.2727 -1.63439H117.364M88.2727 27.4323V56.4989M88.2727 27.4323H117.364M88.2727 56.4989V85.5656M88.2727 56.4989H117.364M88.2727 85.5656V114.632M88.2727 85.5656H117.364M88.2727 114.632V143.699M88.2727 114.632H117.364M88.2727 143.699V172.766M88.2727 143.699H117.364M88.2727 172.766V201.832M88.2727 172.766H117.364M88.2727 201.832V230.899M88.2727 201.832H117.364M88.2727 230.899V259.966M88.2727 230.899H117.364M88.2727 259.966V289.032M88.2727 259.966H117.364M88.2727 289.032V318.099M88.2727 289.032H117.364M88.2727 318.099H117.364M117.364 -263.234V-234.168M117.364 -263.234H146.455M117.364 -234.168V-205.101M117.364 -234.168H146.455M117.364 -205.101V-176.034M117.364 -205.101H146.455M117.364 -176.034V-146.968M117.364 -176.034H146.455M117.364 -146.968V-117.901M117.364 -146.968H146.455M117.364 -117.901V-88.8344M117.364 -117.901H146.455M117.364 -88.8344V-59.7677M117.364 -88.8344H146.455M117.364 -59.7677V-30.7011M117.364 -59.7677H146.455M117.364 -30.7011V-1.63439M117.364 -30.7011H146.455M117.364 -1.63439V27.4323M117.364 -1.63439H146.455M117.364 27.4323V56.4989M117.364 27.4323H146.455M117.364 56.4989V85.5656M117.364 56.4989H146.455M117.364 85.5656V114.632M117.364 85.5656H146.455M117.364 114.632V143.699M117.364 114.632H146.455M117.364 143.699V172.766M117.364 143.699H146.455M117.364 172.766V201.832M117.364 172.766H146.455M117.364 201.832V230.899M117.364 201.832H146.455M117.364 230.899V259.966M117.364 230.899H146.455M117.364 259.966V289.032M117.364 259.966H146.455M117.364 289.032V318.099M117.364 289.032H146.455M117.364 318.099H146.455M146.455 -263.234V-234.168M146.455 -263.234H175.545M146.455 -234.168V-205.101M146.455 -234.168H175.545M146.455 -205.101V-176.034M146.455 -205.101H175.545M146.455 -176.034V-146.968M146.455 -176.034H175.545M146.455 -146.968V-117.901M146.455 -146.968H175.545M146.455 -117.901V-88.8344M146.455 -117.901H175.545M146.455 -88.8344V-59.7677M146.455 -88.8344H175.545M146.455 -59.7677V-30.7011M146.455 -59.7677H175.545M146.455 -30.7011V-1.63439M146.455 -30.7011H175.545M146.455 -1.63439V27.4323M146.455 -1.63439H175.545M146.455 27.4323V56.4989M146.455 27.4323H175.545M146.455 56.4989V85.5656M146.455 56.4989H175.545M146.455 85.5656V114.632M146.455 85.5656H175.545M146.455 114.632V143.699M146.455 114.632H175.545M146.455 143.699V172.766M146.455 143.699H175.545M146.455 172.766V201.832M146.455 172.766H175.545M146.455 201.832V230.899M146.455 201.832H175.545M146.455 230.899V259.966M146.455 230.899H175.545M146.455 259.966V289.032M146.455 259.966H175.545M146.455 289.032V318.099M146.455 289.032H175.545M146.455 318.099H175.545M175.545 -263.234V-234.168M175.545 -263.234H204.636M175.545 -234.168V-205.101M175.545 -234.168H204.636M175.545 -205.101V-176.034M175.545 -205.101H204.636M175.545 -176.034V-146.968M175.545 -176.034H204.636M175.545 -146.968V-117.901M175.545 -146.968H204.636M175.545 -117.901V-88.8344M175.545 -117.901H204.636M175.545 -88.8344V-59.7677M175.545 -88.8344H204.636M175.545 -59.7677V-30.7011M175.545 -59.7677H204.636M175.545 -30.7011V-1.63439M175.545 -30.7011H204.636M175.545 -1.63439V27.4323M175.545 -1.63439H204.636M175.545 27.4323V56.4989M175.545 27.4323H204.636M175.545 56.4989V85.5656M175.545 56.4989H204.636M175.545 85.5656V114.632M175.545 85.5656H204.636M175.545 114.632V143.699M175.545 114.632H204.636M175.545 143.699V172.766M175.545 143.699H204.636M175.545 172.766V201.832M175.545 172.766H204.636M175.545 201.832V230.899M175.545 201.832H204.636M175.545 230.899V259.966M175.545 230.899H204.636M175.545 259.966V289.032M175.545 259.966H204.636M175.545 289.032V318.099M175.545 289.032H204.636M175.545 318.099H204.636M204.636 -263.234V-234.168M204.636 -263.234H233.727M204.636 -234.168V-205.101M204.636 -234.168H233.727M204.636 -205.101V-176.034M204.636 -205.101H233.727M204.636 -176.034V-146.968M204.636 -176.034H233.727M204.636 -146.968V-117.901M204.636 -146.968H233.727M204.636 -117.901V-88.8344M204.636 -117.901H233.727M204.636 -88.8344V-59.7677M204.636 -88.8344H233.727M204.636 -59.7677V-30.7011M204.636 -59.7677H233.727M204.636 -30.7011V-1.63439M204.636 -30.7011H233.727M204.636 -1.63439V27.4323M204.636 -1.63439H233.727M204.636 27.4323V56.4989M204.636 27.4323H233.727M204.636 56.4989V85.5656M204.636 56.4989H233.727M204.636 85.5656V114.632M204.636 85.5656H233.727M204.636 114.632V143.699M204.636 114.632H233.727M204.636 143.699V172.766M204.636 143.699H233.727M204.636 172.766V201.832M204.636 172.766H233.727M204.636 201.832V230.899M204.636 201.832H233.727M204.636 230.899V259.966M204.636 230.899H233.727M204.636 259.966V289.032M204.636 259.966H233.727M204.636 289.032V318.099M204.636 289.032H233.727M204.636 318.099H233.727M233.727 -263.234V-234.168M233.727 -263.234H262.818M233.727 -234.168V-205.101M233.727 -234.168H262.818M233.727 -205.101V-176.034M233.727 -205.101H262.818M233.727 -176.034V-146.968M233.727 -176.034H262.818M233.727 -146.968V-117.901M233.727 -146.968H262.818M233.727 -117.901V-88.8344M233.727 -117.901H262.818M233.727 -88.8344V-59.7677M233.727 -88.8344H262.818M233.727 -59.7677V-30.7011M233.727 -59.7677H262.818M233.727 -30.7011V-1.63439M233.727 -30.7011H262.818M233.727 -1.63439V27.4323M233.727 -1.63439H262.818M233.727 27.4323V56.4989M233.727 27.4323H262.818M233.727 56.4989V85.5656M233.727 56.4989H262.818M233.727 85.5656V114.632M233.727 85.5656H262.818M233.727 114.632V143.699M233.727 114.632H262.818M233.727 143.699V172.766M233.727 143.699H262.818M233.727 172.766V201.832M233.727 172.766H262.818M233.727 201.832V230.899M233.727 201.832H262.818M233.727 230.899V259.966M233.727 230.899H262.818M233.727 259.966V289.032M233.727 259.966H262.818M233.727 289.032V318.099M233.727 289.032H262.818M233.727 318.099H262.818M262.818 -263.234V-234.168M262.818 -263.234H291.909M262.818 -234.168V-205.101M262.818 -234.168H291.909M262.818 -205.101V-176.034M262.818 -205.101H291.909M262.818 -176.034V-146.968M262.818 -176.034H291.909M262.818 -146.968V-117.901M262.818 -146.968H291.909M262.818 -117.901V-88.8344M262.818 -117.901H291.909M262.818 -88.8344V-59.7677M262.818 -88.8344H291.909M262.818 -59.7677V-30.7011M262.818 -59.7677H291.909M262.818 -30.7011V-1.63439M262.818 -30.7011H291.909M262.818 -1.63439V27.4323M262.818 -1.63439H291.909M262.818 27.4323V56.4989M262.818 27.4323H291.909M262.818 56.4989V85.5656M262.818 56.4989H291.909M262.818 85.5656V114.632M262.818 85.5656H291.909M262.818 114.632V143.699M262.818 114.632H291.909M262.818 143.699V172.766M262.818 143.699H291.909M262.818 172.766V201.832M262.818 172.766H291.909M262.818 201.832V230.899M262.818 201.832H291.909M262.818 230.899V259.966M262.818 230.899H291.909M262.818 259.966V289.032M262.818 259.966H291.909M262.818 289.032V318.099M262.818 289.032H291.909M262.818 318.099H291.909M291.909 -263.234V-234.168M291.909 -263.234H321M291.909 -234.168V-205.101M291.909 -234.168H321M291.909 -205.101V-176.034M291.909 -205.101H321M291.909 -176.034V-146.968M291.909 -176.034H321M291.909 -146.968V-117.901M291.909 -146.968H321M291.909 -117.901V-88.8344M291.909 -117.901H321M291.909 -88.8344V-59.7677M291.909 -88.8344H321M291.909 -59.7677V-30.7011M291.909 -59.7677H321M291.909 -30.7011V-1.63439M291.909 -30.7011H321M291.909 -1.63439V27.4323M291.909 -1.63439H321M291.909 27.4323V56.4989M291.909 27.4323H321M291.909 56.4989V85.5656M291.909 56.4989H321M291.909 85.5656V114.632M291.909 85.5656H321M291.909 114.632V143.699M291.909 114.632H321M291.909 143.699V172.766M291.909 143.699H321M291.909 172.766V201.832M291.909 172.766H321M291.909 201.832V230.899M291.909 201.832H321M291.909 230.899V259.966M291.909 230.899H321M291.909 259.966V289.032M291.909 259.966H321M291.909 289.032V318.099M291.909 289.032H321M291.909 318.099H321M321 -263.234V-234.168M321 -263.234H350.091M321 -234.168V-205.101M321 -234.168H350.091M321 -205.101V-176.034M321 -205.101H350.091M321 -176.034V-146.968M321 -176.034H350.091M321 -146.968V-117.901M321 -146.968H350.091M321 -117.901V-88.8344M321 -117.901H350.091M321 -88.8344V-59.7677M321 -88.8344H350.091M321 -59.7677V-30.7011M321 -59.7677H350.091M321 -30.7011V-1.63439M321 -30.7011H350.091M321 -1.63439V27.4323M321 -1.63439H350.091M321 27.4323V56.4989M321 27.4323H350.091M321 56.4989V85.5656M321 56.4989H350.091M321 85.5656V114.632M321 85.5656H350.091M321 114.632V143.699M321 114.632H350.091M321 143.699V172.766M321 143.699H350.091M321 172.766V201.832M321 172.766H350.091M321 201.832V230.899M321 201.832H350.091M321 230.899V259.966M321 230.899H350.091M321 259.966V289.032M321 259.966H350.091M321 289.032V318.099M321 289.032H350.091M321 318.099H350.091M350.091 -263.234V-234.168M350.091 -263.234H379.182M350.091 -234.168V-205.101M350.091 -234.168H379.182M350.091 -205.101V-176.034M350.091 -205.101H379.182M350.091 -176.034V-146.968M350.091 -176.034H379.182M350.091 -146.968V-117.901M350.091 -146.968H379.182M350.091 -117.901V-88.8344M350.091 -117.901H379.182M350.091 -88.8344V-59.7677M350.091 -88.8344H379.182M350.091 -59.7677V-30.7011M350.091 -59.7677H379.182M350.091 -30.7011V-1.63439M350.091 -30.7011H379.182M350.091 -1.63439V27.4323M350.091 -1.63439H379.182M350.091 27.4323V56.4989M350.091 27.4323H379.182M350.091 56.4989V85.5656M350.091 56.4989H379.182M350.091 85.5656V114.632M350.091 85.5656H379.182M350.091 114.632V143.699M350.091 114.632H379.182M350.091 143.699V172.766M350.091 143.699H379.182M350.091 172.766V201.832M350.091 172.766H379.182M350.091 201.832V230.899M350.091 201.832H379.182M350.091 230.899V259.966M350.091 230.899H379.182M350.091 259.966V289.032M350.091 259.966H379.182M350.091 289.032V318.099M350.091 289.032H379.182M350.091 318.099H379.182M379.182 -263.234V-234.168M379.182 -263.234H408.273M379.182 -234.168V-205.101M379.182 -234.168H408.273M379.182 -205.101V-176.034M379.182 -205.101H408.273M379.182 -176.034V-146.968M379.182 -176.034H408.273M379.182 -146.968V-117.901M379.182 -146.968H408.273M379.182 -117.901V-88.8344M379.182 -117.901H408.273M379.182 -88.8344V-59.7677M379.182 -88.8344H408.273M379.182 -59.7677V-30.7011M379.182 -59.7677H408.273M379.182 -30.7011V-1.63439M379.182 -30.7011H408.273M379.182 -1.63439V27.4323M379.182 -1.63439H408.273M379.182 27.4323V56.4989M379.182 27.4323H408.273M379.182 56.4989V85.5656M379.182 56.4989H408.273M379.182 85.5656V114.632M379.182 85.5656H408.273M379.182 114.632V143.699M379.182 114.632H408.273M379.182 143.699V172.766M379.182 143.699H408.273M379.182 172.766V201.832M379.182 172.766H408.273M379.182 201.832V230.899M379.182 201.832H408.273M379.182 230.899V259.966M379.182 230.899H408.273M379.182 259.966V289.032M379.182 259.966H408.273M379.182 289.032V318.099M379.182 289.032H408.273M379.182 318.099H408.273M408.273 -263.234V-234.168M408.273 -263.234H437.364M408.273 -234.168V-205.101M408.273 -234.168H437.364M408.273 -205.101V-176.034M408.273 -205.101H437.364M408.273 -176.034V-146.968M408.273 -176.034H437.364M408.273 -146.968V-117.901M408.273 -146.968H437.364M408.273 -117.901V-88.8344M408.273 -117.901H437.364M408.273 -88.8344V-59.7677M408.273 -88.8344H437.364M408.273 -59.7677V-30.7011M408.273 -59.7677H437.364M408.273 -30.7011V-1.63439M408.273 -30.7011H437.364M408.273 -1.63439V27.4323M408.273 -1.63439H437.364M408.273 27.4323V56.4989M408.273 27.4323H437.364M408.273 56.4989V85.5656M408.273 56.4989H437.364M408.273 85.5656V114.632M408.273 85.5656H437.364M408.273 114.632V143.699M408.273 114.632H437.364M408.273 143.699V172.766M408.273 143.699H437.364M408.273 172.766V201.832M408.273 172.766H437.364M408.273 201.832V230.899M408.273 201.832H437.364M408.273 230.899V259.966M408.273 230.899H437.364M408.273 259.966V289.032M408.273 259.966H437.364M408.273 289.032V318.099M408.273 289.032H437.364M408.273 318.099H437.364M437.364 -263.234V-234.168M437.364 -263.234H466.455M437.364 -234.168V-205.101M437.364 -234.168H466.455M437.364 -205.101V-176.034M437.364 -205.101H466.455M437.364 -176.034V-146.968M437.364 -176.034H466.455M437.364 -146.968V-117.901M437.364 -146.968H466.455M437.364 -117.901V-88.8344M437.364 -117.901H466.455M437.364 -88.8344V-59.7677M437.364 -88.8344H466.455M437.364 -59.7677V-30.7011M437.364 -59.7677H466.455M437.364 -30.7011V-1.63439M437.364 -30.7011H466.455M437.364 -1.63439V27.4323M437.364 -1.63439H466.455M437.364 27.4323V56.4989M437.364 27.4323H466.455M437.364 56.4989V85.5656M437.364 56.4989H466.455M437.364 85.5656V114.632M437.364 85.5656H466.455M437.364 114.632V143.699M437.364 114.632H466.455M437.364 143.699V172.766M437.364 143.699H466.455M437.364 172.766V201.832M437.364 172.766H466.455M437.364 201.832V230.899M437.364 201.832H466.455M437.364 230.899V259.966M437.364 230.899H466.455M437.364 259.966V289.032M437.364 259.966H466.455M437.364 289.032V318.099M437.364 289.032H466.455M437.364 318.099H466.455M466.455 -263.234V-234.168M466.455 -263.234H495.545M466.455 -234.168V-205.101M466.455 -234.168H495.545M466.455 -205.101V-176.034M466.455 -205.101H495.545M466.455 -176.034V-146.968M466.455 -176.034H495.545M466.455 -146.968V-117.901M466.455 -146.968H495.545M466.455 -117.901V-88.8344M466.455 -117.901H495.545M466.455 -88.8344V-59.7677M466.455 -88.8344H495.545M466.455 -59.7677V-30.7011M466.455 -59.7677H495.545M466.455 -30.7011V-1.63439M466.455 -30.7011H495.545M466.455 -1.63439V27.4323M466.455 -1.63439H495.545M466.455 27.4323V56.4989M466.455 27.4323H495.545M466.455 56.4989V85.5656M466.455 56.4989H495.545M466.455 85.5656V114.632M466.455 85.5656H495.545M466.455 114.632V143.699M466.455 114.632H495.545M466.455 143.699V172.766M466.455 143.699H495.545M466.455 172.766V201.832M466.455 172.766H495.545M466.455 201.832V230.899M466.455 201.832H495.545M466.455 230.899V259.966M466.455 230.899H495.545M466.455 259.966V289.032M466.455 259.966H495.545M466.455 289.032V318.099M466.455 289.032H495.545M466.455 318.099H495.545M495.545 -263.234V-234.168M495.545 -263.234H524.636M495.545 -234.168V-205.101M495.545 -234.168H524.636M495.545 -205.101V-176.034M495.545 -205.101H524.636M495.545 -176.034V-146.968M495.545 -176.034H524.636M495.545 -146.968V-117.901M495.545 -146.968H524.636M495.545 -117.901V-88.8344M495.545 -117.901H524.636M495.545 -88.8344V-59.7677M495.545 -88.8344H524.636M495.545 -59.7677V-30.7011M495.545 -59.7677H524.636M495.545 -30.7011V-1.63439M495.545 -30.7011H524.636M495.545 -1.63439V27.4323M495.545 -1.63439H524.636M495.545 27.4323V56.4989M495.545 27.4323H524.636M495.545 56.4989V85.5656M495.545 56.4989H524.636M495.545 85.5656V114.632M495.545 85.5656H524.636M495.545 114.632V143.699M495.545 114.632H524.636M495.545 143.699V172.766M495.545 143.699H524.636M495.545 172.766V201.832M495.545 172.766H524.636M495.545 201.832V230.899M495.545 201.832H524.636M495.545 230.899V259.966M495.545 230.899H524.636M495.545 259.966V289.032M495.545 259.966H524.636M495.545 289.032V318.099M495.545 289.032H524.636M495.545 318.099H524.636M524.636 -263.234V-234.168M524.636 -263.234H553.727M524.636 -234.168V-205.101M524.636 -234.168H553.727M524.636 -205.101V-176.034M524.636 -205.101H553.727M524.636 -176.034V-146.968M524.636 -176.034H553.727M524.636 -146.968V-117.901M524.636 -146.968H553.727M524.636 -117.901V-88.8344M524.636 -117.901H553.727M524.636 -88.8344V-59.7677M524.636 -88.8344H553.727M524.636 -59.7677V-30.7011M524.636 -59.7677H553.727M524.636 -30.7011V-1.63439M524.636 -30.7011H553.727M524.636 -1.63439V27.4323M524.636 -1.63439H553.727M524.636 27.4323V56.4989M524.636 27.4323H553.727M524.636 56.4989V85.5656M524.636 56.4989H553.727M524.636 85.5656V114.632M524.636 85.5656H553.727M524.636 114.632V143.699M524.636 114.632H553.727M524.636 143.699V172.766M524.636 143.699H553.727M524.636 172.766V201.832M524.636 172.766H553.727M524.636 201.832V230.899M524.636 201.832H553.727M524.636 230.899V259.966M524.636 230.899H553.727M524.636 259.966V289.032M524.636 259.966H553.727M524.636 289.032V318.099M524.636 289.032H553.727M524.636 318.099H553.727M553.727 -263.234V-234.168M553.727 -263.234H582.818M553.727 -234.168V-205.101M553.727 -234.168H582.818M553.727 -205.101V-176.034M553.727 -205.101H582.818M553.727 -176.034V-146.968M553.727 -176.034H582.818M553.727 -146.968V-117.901M553.727 -146.968H582.818M553.727 -117.901V-88.8344M553.727 -117.901H582.818M553.727 -88.8344V-59.7677M553.727 -88.8344H582.818M553.727 -59.7677V-30.7011M553.727 -59.7677H582.818M553.727 -30.7011V-1.63439M553.727 -30.7011H582.818M553.727 -1.63439V27.4323M553.727 -1.63439H582.818M553.727 27.4323V56.4989M553.727 27.4323H582.818M553.727 56.4989V85.5656M553.727 56.4989H582.818M553.727 85.5656V114.632M553.727 85.5656H582.818M553.727 114.632V143.699M553.727 114.632H582.818M553.727 143.699V172.766M553.727 143.699H582.818M553.727 172.766V201.832M553.727 172.766H582.818M553.727 201.832V230.899M553.727 201.832H582.818M553.727 230.899V259.966M553.727 230.899H582.818M553.727 259.966V289.032M553.727 259.966H582.818M553.727 289.032V318.099M553.727 289.032H582.818M553.727 318.099H582.818M582.818 -263.234V-234.168M582.818 -263.234H611.909M582.818 -234.168V-205.101M582.818 -234.168H611.909M582.818 -205.101V-176.034M582.818 -205.101H611.909M582.818 -176.034V-146.968M582.818 -176.034H611.909M582.818 -146.968V-117.901M582.818 -146.968H611.909M582.818 -117.901V-88.8344M582.818 -117.901H611.909M582.818 -88.8344V-59.7677M582.818 -88.8344H611.909M582.818 -59.7677V-30.7011M582.818 -59.7677H611.909M582.818 -30.7011V-1.63439M582.818 -30.7011H611.909M582.818 -1.63439V27.4323M582.818 -1.63439H611.909M582.818 27.4323V56.4989M582.818 27.4323H611.909M582.818 56.4989V85.5656M582.818 56.4989H611.909M582.818 85.5656V114.632M582.818 85.5656H611.909M582.818 114.632V143.699M582.818 114.632H611.909M582.818 143.699V172.766M582.818 143.699H611.909M582.818 172.766V201.832M582.818 172.766H611.909M582.818 201.832V230.899M582.818 201.832H611.909M582.818 230.899V259.966M582.818 230.899H611.909M582.818 259.966V289.032M582.818 259.966H611.909M582.818 289.032V318.099M582.818 289.032H611.909M582.818 318.099H611.909M611.909 -263.234V-234.168M611.909 -263.234H641M611.909 -234.168V-205.101M611.909 -234.168H641M611.909 -205.101V-176.034M611.909 -205.101H641M611.909 -176.034V-146.968M611.909 -176.034H641M611.909 -146.968V-117.901M611.909 -146.968H641M611.909 -117.901V-88.8344M611.909 -117.901H641M611.909 -88.8344V-59.7677M611.909 -88.8344H641M611.909 -59.7677V-30.7011M611.909 -59.7677H641M611.909 -30.7011V-1.63439M611.909 -30.7011H641M611.909 -1.63439V27.4323M611.909 -1.63439H641M611.909 27.4323V56.4989M611.909 27.4323H641M611.909 56.4989V85.5656M611.909 56.4989H641M611.909 85.5656V114.632M611.909 85.5656H641M611.909 114.632V143.699M611.909 114.632H641M611.909 143.699V172.766M611.909 143.699H641M611.909 172.766V201.832M611.909 172.766H641M611.909 201.832V230.899M611.909 201.832H641M611.909 230.899V259.966M611.909 230.899H641M611.909 259.966V289.032M611.909 259.966H641M611.909 289.032V318.099M611.909 289.032H641M611.909 318.099H641M641 -263.234V-234.168M641 -263.234H670.091M641 -234.168V-205.101M641 -234.168H670.091M641 -205.101V-176.034M641 -205.101H670.091M641 -176.034V-146.968M641 -176.034H670.091M641 -146.968V-117.901M641 -146.968H670.091M641 -117.901V-88.8344M641 -117.901H670.091M641 -88.8344V-59.7677M641 -88.8344H670.091M641 -59.7677V-30.7011M641 -59.7677H670.091M641 -30.7011V-1.63439M641 -30.7011H670.091M641 -1.63439V27.4323M641 -1.63439H670.091M641 27.4323V56.4989M641 27.4323H670.091M641 56.4989V85.5656M641 56.4989H670.091M641 85.5656V114.632M641 85.5656H670.091M641 114.632V143.699M641 114.632H670.091M641 143.699V172.766M641 143.699H670.091M641 172.766V201.832M641 172.766H670.091M641 201.832V230.899M641 201.832H670.091M641 230.899V259.966M641 230.899H670.091M641 259.966V289.032M641 259.966H670.091M641 289.032V318.099M641 289.032H670.091M641 318.099H670.091M670.091 -263.234V-234.168M670.091 -263.234H699.182M670.091 -234.168V-205.101M670.091 -234.168H699.182M670.091 -205.101V-176.034M670.091 -205.101H699.182M670.091 -176.034V-146.968M670.091 -176.034H699.182M670.091 -146.968V-117.901M670.091 -146.968H699.182M670.091 -117.901V-88.8344M670.091 -117.901H699.182M670.091 -88.8344V-59.7677M670.091 -88.8344H699.182M670.091 -59.7677V-30.7011M670.091 -59.7677H699.182M670.091 -30.7011V-1.63439M670.091 -30.7011H699.182M670.091 -1.63439V27.4323M670.091 -1.63439H699.182M670.091 27.4323V56.4989M670.091 27.4323H699.182M670.091 56.4989V85.5656M670.091 56.4989H699.182M670.091 85.5656V114.632M670.091 85.5656H699.182M670.091 114.632V143.699M670.091 114.632H699.182M670.091 143.699V172.766M670.091 143.699H699.182M670.091 172.766V201.832M670.091 172.766H699.182M670.091 201.832V230.899M670.091 201.832H699.182M670.091 230.899V259.966M670.091 230.899H699.182M670.091 259.966V289.032M670.091 259.966H699.182M670.091 289.032V318.099M670.091 289.032H699.182M670.091 318.099H699.182M699.182 -263.234V-234.168M699.182 -263.234H728.273M699.182 -234.168V-205.101M699.182 -234.168H728.273M699.182 -205.101V-176.034M699.182 -205.101H728.273M699.182 -176.034V-146.968M699.182 -176.034H728.273M699.182 -146.968V-117.901M699.182 -146.968H728.273M699.182 -117.901V-88.8344M699.182 -117.901H728.273M699.182 -88.8344V-59.7677M699.182 -88.8344H728.273M699.182 -59.7677V-30.7011M699.182 -59.7677H728.273M699.182 -30.7011V-1.63439M699.182 -30.7011H728.273M699.182 -1.63439V27.4323M699.182 -1.63439H728.273M699.182 27.4323V56.4989M699.182 27.4323H728.273M699.182 56.4989V85.5656M699.182 56.4989H728.273M699.182 85.5656V114.632M699.182 85.5656H728.273M699.182 114.632V143.699M699.182 114.632H728.273M699.182 143.699V172.766M699.182 143.699H728.273M699.182 172.766V201.832M699.182 172.766H728.273M699.182 201.832V230.899M699.182 201.832H728.273M699.182 230.899V259.966M699.182 230.899H728.273M699.182 259.966V289.032M699.182 259.966H728.273M699.182 289.032V318.099M699.182 289.032H728.273M699.182 318.099H728.273M728.273 -263.234V-234.168M728.273 -263.234H757.364M728.273 -234.168V-205.101M728.273 -234.168H757.364M728.273 -205.101V-176.034M728.273 -205.101H757.364M728.273 -176.034V-146.968M728.273 -176.034H757.364M728.273 -146.968V-117.901M728.273 -146.968H757.364M728.273 -117.901V-88.8344M728.273 -117.901H757.364M728.273 -88.8344V-59.7677M728.273 -88.8344H757.364M728.273 -59.7677V-30.7011M728.273 -59.7677H757.364M728.273 -30.7011V-1.63439M728.273 -30.7011H757.364M728.273 -1.63439V27.4323M728.273 -1.63439H757.364M728.273 27.4323V56.4989M728.273 27.4323H757.364M728.273 56.4989V85.5656M728.273 56.4989H757.364M728.273 85.5656V114.632M728.273 85.5656H757.364M728.273 114.632V143.699M728.273 114.632H757.364M728.273 143.699V172.766M728.273 143.699H757.364M728.273 172.766V201.832M728.273 172.766H757.364M728.273 201.832V230.899M728.273 201.832H757.364M728.273 230.899V259.966M728.273 230.899H757.364M728.273 259.966V289.032M728.273 259.966H757.364M728.273 289.032V318.099M728.273 289.032H757.364M728.273 318.099H757.364M757.364 -263.234V-234.168M757.364 -263.234H786.455M757.364 -234.168V-205.101M757.364 -234.168H786.455M757.364 -205.101V-176.034M757.364 -205.101H786.455M757.364 -176.034V-146.968M757.364 -176.034H786.455M757.364 -146.968V-117.901M757.364 -146.968H786.455M757.364 -117.901V-88.8344M757.364 -117.901H786.455M757.364 -88.8344V-59.7677M757.364 -88.8344H786.455M757.364 -59.7677V-30.7011M757.364 -59.7677H786.455M757.364 -30.7011V-1.63439M757.364 -30.7011H786.455M757.364 -1.63439V27.4323M757.364 -1.63439H786.455M757.364 27.4323V56.4989M757.364 27.4323H786.455M757.364 56.4989V85.5656M757.364 56.4989H786.455M757.364 85.5656V114.632M757.364 85.5656H786.455M757.364 114.632V143.699M757.364 114.632H786.455M757.364 143.699V172.766M757.364 143.699H786.455M757.364 172.766V201.832M757.364 172.766H786.455M757.364 201.832V230.899M757.364 201.832H786.455M757.364 230.899V259.966M757.364 230.899H786.455M757.364 259.966V289.032M757.364 259.966H786.455M757.364 289.032V318.099M757.364 289.032H786.455M757.364 318.099H786.455M786.455 -263.234V-234.168M786.455 -263.234H815.545M786.455 -234.168V-205.101M786.455 -234.168H815.545M786.455 -205.101V-176.034M786.455 -205.101H815.545M786.455 -176.034V-146.968M786.455 -176.034H815.545M786.455 -146.968V-117.901M786.455 -146.968H815.545M786.455 -117.901V-88.8344M786.455 -117.901H815.545M786.455 -88.8344V-59.7677M786.455 -88.8344H815.545M786.455 -59.7677V-30.7011M786.455 -59.7677H815.545M786.455 -30.7011V-1.63439M786.455 -30.7011H815.545M786.455 -1.63439V27.4323M786.455 -1.63439H815.545M786.455 27.4323V56.4989M786.455 27.4323H815.545M786.455 56.4989V85.5656M786.455 56.4989H815.545M786.455 85.5656V114.632M786.455 85.5656H815.545M786.455 114.632V143.699M786.455 114.632H815.545M786.455 143.699V172.766M786.455 143.699H815.545M786.455 172.766V201.832M786.455 172.766H815.545M786.455 201.832V230.899M786.455 201.832H815.545M786.455 230.899V259.966M786.455 230.899H815.545M786.455 259.966V289.032M786.455 259.966H815.545M786.455 289.032V318.099M786.455 289.032H815.545M786.455 318.099H815.545M815.545 -263.234V-234.168M815.545 -263.234H844.636M815.545 -234.168V-205.101M815.545 -234.168H844.636M815.545 -205.101V-176.034M815.545 -205.101H844.636M815.545 -176.034V-146.968M815.545 -176.034H844.636M815.545 -146.968V-117.901M815.545 -146.968H844.636M815.545 -117.901V-88.8344M815.545 -117.901H844.636M815.545 -88.8344V-59.7677M815.545 -88.8344H844.636M815.545 -59.7677V-30.7011M815.545 -59.7677H844.636M815.545 -30.7011V-1.63439M815.545 -30.7011H844.636M815.545 -1.63439V27.4323M815.545 -1.63439H844.636M815.545 27.4323V56.4989M815.545 27.4323H844.636M815.545 56.4989V85.5656M815.545 56.4989H844.636M815.545 85.5656V114.632M815.545 85.5656H844.636M815.545 114.632V143.699M815.545 114.632H844.636M815.545 143.699V172.766M815.545 143.699H844.636M815.545 172.766V201.832M815.545 172.766H844.636M815.545 201.832V230.899M815.545 201.832H844.636M815.545 230.899V259.966M815.545 230.899H844.636M815.545 259.966V289.032M815.545 259.966H844.636M815.545 289.032V318.099M815.545 289.032H844.636M815.545 318.099H844.636M844.636 -263.234V-234.168M844.636 -263.234H873.727M844.636 -234.168V-205.101M844.636 -234.168H873.727M844.636 -205.101V-176.034M844.636 -205.101H873.727M844.636 -176.034V-146.968M844.636 -176.034H873.727M844.636 -146.968V-117.901M844.636 -146.968H873.727M844.636 -117.901V-88.8344M844.636 -117.901H873.727M844.636 -88.8344V-59.7677M844.636 -88.8344H873.727M844.636 -59.7677V-30.7011M844.636 -59.7677H873.727M844.636 -30.7011V-1.63439M844.636 -30.7011H873.727M844.636 -1.63439V27.4323M844.636 -1.63439H873.727M844.636 27.4323V56.4989M844.636 27.4323H873.727M844.636 56.4989V85.5656M844.636 56.4989H873.727M844.636 85.5656V114.632M844.636 85.5656H873.727M844.636 114.632V143.699M844.636 114.632H873.727M844.636 143.699V172.766M844.636 143.699H873.727M844.636 172.766V201.832M844.636 172.766H873.727M844.636 201.832V230.899M844.636 201.832H873.727M844.636 230.899V259.966M844.636 230.899H873.727M844.636 259.966V289.032M844.636 259.966H873.727M844.636 289.032V318.099M844.636 289.032H873.727M844.636 318.099H873.727M873.727 -263.234V-234.168M873.727 -263.234H902.818M873.727 -234.168V-205.101M873.727 -234.168H902.818M873.727 -205.101V-176.034M873.727 -205.101H902.818M873.727 -176.034V-146.968M873.727 -176.034H902.818M873.727 -146.968V-117.901M873.727 -146.968H902.818M873.727 -117.901V-88.8344M873.727 -117.901H902.818M873.727 -88.8344V-59.7677M873.727 -88.8344H902.818M873.727 -59.7677V-30.7011M873.727 -59.7677H902.818M873.727 -30.7011V-1.63439M873.727 -30.7011H902.818M873.727 -1.63439V27.4323M873.727 -1.63439H902.818M873.727 27.4323V56.4989M873.727 27.4323H902.818M873.727 56.4989V85.5656M873.727 56.4989H902.818M873.727 85.5656V114.632M873.727 85.5656H902.818M873.727 114.632V143.699M873.727 114.632H902.818M873.727 143.699V172.766M873.727 143.699H902.818M873.727 172.766V201.832M873.727 172.766H902.818M873.727 201.832V230.899M873.727 201.832H902.818M873.727 230.899V259.966M873.727 230.899H902.818M873.727 259.966V289.032M873.727 259.966H902.818M873.727 289.032V318.099M873.727 289.032H902.818M873.727 318.099H902.818M902.818 -263.234V-234.168M902.818 -263.234H931.909M902.818 -234.168V-205.101M902.818 -234.168H931.909M902.818 -205.101V-176.034M902.818 -205.101H931.909M902.818 -176.034V-146.968M902.818 -176.034H931.909M902.818 -146.968V-117.901M902.818 -146.968H931.909M902.818 -117.901V-88.8344M902.818 -117.901H931.909M902.818 -88.8344V-59.7677M902.818 -88.8344H931.909M902.818 -59.7677V-30.7011M902.818 -59.7677H931.909M902.818 -30.7011V-1.63439M902.818 -30.7011H931.909M902.818 -1.63439V27.4323M902.818 -1.63439H931.909M902.818 27.4323V56.4989M902.818 27.4323H931.909M902.818 56.4989V85.5656M902.818 56.4989H931.909M902.818 85.5656V114.632M902.818 85.5656H931.909M902.818 114.632V143.699M902.818 114.632H931.909M902.818 143.699V172.766M902.818 143.699H931.909M902.818 172.766V201.832M902.818 172.766H931.909M902.818 201.832V230.899M902.818 201.832H931.909M902.818 230.899V259.966M902.818 230.899H931.909M902.818 259.966V289.032M902.818 259.966H931.909M902.818 289.032V318.099M902.818 289.032H931.909M902.818 318.099H931.909M931.909 -263.234V-234.168M931.909 -263.234H961M931.909 -234.168V-205.101M931.909 -234.168H961M931.909 -205.101V-176.034M931.909 -205.101H961M931.909 -176.034V-146.968M931.909 -176.034H961M931.909 -146.968V-117.901M931.909 -146.968H961M931.909 -117.901V-88.8344M931.909 -117.901H961M931.909 -88.8344V-59.7677M931.909 -88.8344H961M931.909 -59.7677V-30.7011M931.909 -59.7677H961M931.909 -30.7011V-1.63439M931.909 -30.7011H961M931.909 -1.63439V27.4323M931.909 -1.63439H961M931.909 27.4323V56.4989M931.909 27.4323H961M931.909 56.4989V85.5656M931.909 56.4989H961M931.909 85.5656V114.632M931.909 85.5656H961M931.909 114.632V143.699M931.909 114.632H961M931.909 143.699V172.766M931.909 143.699H961M931.909 172.766V201.832M931.909 172.766H961M931.909 201.832V230.899M931.909 201.832H961M931.909 230.899V259.966M931.909 230.899H961M931.909 259.966V289.032M931.909 259.966H961M931.909 289.032V318.099M931.909 289.032H961M931.909 318.099H961M961 -263.234V-234.168M961 -263.234H990.091M961 -234.168V-205.101M961 -234.168H990.091M961 -205.101V-176.034M961 -205.101H990.091M961 -176.034V-146.968M961 -176.034H990.091M961 -146.968V-117.901M961 -146.968H990.091M961 -117.901V-88.8344M961 -117.901H990.091M961 -88.8344V-59.7677M961 -88.8344H990.091M961 -59.7677V-30.7011M961 -59.7677H990.091M961 -30.7011V-1.63439M961 -30.7011H990.091M961 -1.63439V27.4323M961 -1.63439H990.091M961 27.4323V56.4989M961 27.4323H990.091M961 56.4989V85.5656M961 56.4989H990.091M961 85.5656V114.632M961 85.5656H990.091M961 114.632V143.699M961 114.632H990.091M961 143.699V172.766M961 143.699H990.091M961 172.766V201.832M961 172.766H990.091M961 201.832V230.899M961 201.832H990.091M961 230.899V259.966M961 230.899H990.091M961 259.966V289.032M961 259.966H990.091M961 289.032V318.099M961 289.032H990.091M961 318.099H990.091M990.091 -263.234V-234.168M990.091 -263.234H1019.18M990.091 -234.168V-205.101M990.091 -234.168H1019.18M990.091 -205.101V-176.034M990.091 -205.101H1019.18M990.091 -176.034V-146.968M990.091 -176.034H1019.18M990.091 -146.968V-117.901M990.091 -146.968H1019.18M990.091 -117.901V-88.8344M990.091 -117.901H1019.18M990.091 -88.8344V-59.7677M990.091 -88.8344H1019.18M990.091 -59.7677V-30.7011M990.091 -59.7677H1019.18M990.091 -30.7011V-1.63439M990.091 -30.7011H1019.18M990.091 -1.63439V27.4323M990.091 -1.63439H1019.18M990.091 27.4323V56.4989M990.091 27.4323H1019.18M990.091 56.4989V85.5656M990.091 56.4989H1019.18M990.091 85.5656V114.632M990.091 85.5656H1019.18M990.091 114.632V143.699M990.091 114.632H1019.18M990.091 143.699V172.766M990.091 143.699H1019.18M990.091 172.766V201.832M990.091 172.766H1019.18M990.091 201.832V230.899M990.091 201.832H1019.18M990.091 230.899V259.966M990.091 230.899H1019.18M990.091 259.966V289.032M990.091 259.966H1019.18M990.091 289.032V318.099M990.091 289.032H1019.18M990.091 318.099H1019.18M1019.18 -263.234V-234.168M1019.18 -263.234H1048.27M1019.18 -234.168V-205.101M1019.18 -234.168H1048.27M1019.18 -205.101V-176.034M1019.18 -205.101H1048.27M1019.18 -176.034V-146.968M1019.18 -176.034H1048.27M1019.18 -146.968V-117.901M1019.18 -146.968H1048.27M1019.18 -117.901V-88.8344M1019.18 -117.901H1048.27M1019.18 -88.8344V-59.7677M1019.18 -88.8344H1048.27M1019.18 -59.7677V-30.7011M1019.18 -59.7677H1048.27M1019.18 -30.7011V-1.63439M1019.18 -30.7011H1048.27M1019.18 -1.63439V27.4323M1019.18 -1.63439H1048.27M1019.18 27.4323V56.4989M1019.18 27.4323H1048.27M1019.18 56.4989V85.5656M1019.18 56.4989H1048.27M1019.18 85.5656V114.632M1019.18 85.5656H1048.27M1019.18 114.632V143.699M1019.18 114.632H1048.27M1019.18 143.699V172.766M1019.18 143.699H1048.27M1019.18 172.766V201.832M1019.18 172.766H1048.27M1019.18 201.832V230.899M1019.18 201.832H1048.27M1019.18 230.899V259.966M1019.18 230.899H1048.27M1019.18 259.966V289.032M1019.18 259.966H1048.27M1019.18 289.032V318.099M1019.18 289.032H1048.27M1019.18 318.099H1048.27M1048.27 -263.234V-234.168M1048.27 -263.234H1077.36M1048.27 -234.168V-205.101M1048.27 -234.168H1077.36M1048.27 -205.101V-176.034M1048.27 -205.101H1077.36M1048.27 -176.034V-146.968M1048.27 -176.034H1077.36M1048.27 -146.968V-117.901M1048.27 -146.968H1077.36M1048.27 -117.901V-88.8344M1048.27 -117.901H1077.36M1048.27 -88.8344V-59.7677M1048.27 -88.8344H1077.36M1048.27 -59.7677V-30.7011M1048.27 -59.7677H1077.36M1048.27 -30.7011V-1.63439M1048.27 -30.7011H1077.36M1048.27 -1.63439V27.4323M1048.27 -1.63439H1077.36M1048.27 27.4323V56.4989M1048.27 27.4323H1077.36M1048.27 56.4989V85.5656M1048.27 56.4989H1077.36M1048.27 85.5656V114.632M1048.27 85.5656H1077.36M1048.27 114.632V143.699M1048.27 114.632H1077.36M1048.27 143.699V172.766M1048.27 143.699H1077.36M1048.27 172.766V201.832M1048.27 172.766H1077.36M1048.27 201.832V230.899M1048.27 201.832H1077.36M1048.27 230.899V259.966M1048.27 230.899H1077.36M1048.27 259.966V289.032M1048.27 259.966H1077.36M1048.27 289.032V318.099M1048.27 289.032H1077.36M1048.27 318.099H1077.36M1077.36 -263.234V-234.168M1077.36 -263.234H1106.45M1077.36 -234.168V-205.101M1077.36 -234.168H1106.45M1077.36 -205.101V-176.034M1077.36 -205.101H1106.45M1077.36 -176.034V-146.968M1077.36 -176.034H1106.45M1077.36 -146.968V-117.901M1077.36 -146.968H1106.45M1077.36 -117.901V-88.8344M1077.36 -117.901H1106.45M1077.36 -88.8344V-59.7677M1077.36 -88.8344H1106.45M1077.36 -59.7677V-30.7011M1077.36 -59.7677H1106.45M1077.36 -30.7011V-1.63439M1077.36 -30.7011H1106.45M1077.36 -1.63439V27.4323M1077.36 -1.63439H1106.45M1077.36 27.4323V56.4989M1077.36 27.4323H1106.45M1077.36 56.4989V85.5656M1077.36 56.4989H1106.45M1077.36 85.5656V114.632M1077.36 85.5656H1106.45M1077.36 114.632V143.699M1077.36 114.632H1106.45M1077.36 143.699V172.766M1077.36 143.699H1106.45M1077.36 172.766V201.832M1077.36 172.766H1106.45M1077.36 201.832V230.899M1077.36 201.832H1106.45M1077.36 230.899V259.966M1077.36 230.899H1106.45M1077.36 259.966V289.032M1077.36 259.966H1106.45M1077.36 289.032V318.099M1077.36 289.032H1106.45M1077.36 318.099H1106.45M1106.45 -263.234V-234.168M1106.45 -263.234H1135.55M1106.45 -234.168V-205.101M1106.45 -234.168H1135.55M1106.45 -205.101V-176.034M1106.45 -205.101H1135.55M1106.45 -176.034V-146.968M1106.45 -176.034H1135.55M1106.45 -146.968V-117.901M1106.45 -146.968H1135.55M1106.45 -117.901V-88.8344M1106.45 -117.901H1135.55M1106.45 -88.8344V-59.7677M1106.45 -88.8344H1135.55M1106.45 -59.7677V-30.7011M1106.45 -59.7677H1135.55M1106.45 -30.7011V-1.63439M1106.45 -30.7011H1135.55M1106.45 -1.63439V27.4323M1106.45 -1.63439H1135.55M1106.45 27.4323V56.4989M1106.45 27.4323H1135.55M1106.45 56.4989V85.5656M1106.45 56.4989H1135.55M1106.45 85.5656V114.632M1106.45 85.5656H1135.55M1106.45 114.632V143.699M1106.45 114.632H1135.55M1106.45 143.699V172.766M1106.45 143.699H1135.55M1106.45 172.766V201.832M1106.45 172.766H1135.55M1106.45 201.832V230.899M1106.45 201.832H1135.55M1106.45 230.899V259.966M1106.45 230.899H1135.55M1106.45 259.966V289.032M1106.45 259.966H1135.55M1106.45 289.032V318.099M1106.45 289.032H1135.55M1106.45 318.099H1135.55M1135.55 -263.234V-234.168M1135.55 -263.234H1164.64M1135.55 -234.168V-205.101M1135.55 -234.168H1164.64M1135.55 -205.101V-176.034M1135.55 -205.101H1164.64M1135.55 -176.034V-146.968M1135.55 -176.034H1164.64M1135.55 -146.968V-117.901M1135.55 -146.968H1164.64M1135.55 -117.901V-88.8344M1135.55 -117.901H1164.64M1135.55 -88.8344V-59.7677M1135.55 -88.8344H1164.64M1135.55 -59.7677V-30.7011M1135.55 -59.7677H1164.64M1135.55 -30.7011V-1.63439M1135.55 -30.7011H1164.64M1135.55 -1.63439V27.4323M1135.55 -1.63439H1164.64M1135.55 27.4323V56.4989M1135.55 27.4323H1164.64M1135.55 56.4989V85.5656M1135.55 56.4989H1164.64M1135.55 85.5656V114.632M1135.55 85.5656H1164.64M1135.55 114.632V143.699M1135.55 114.632H1164.64M1135.55 143.699V172.766M1135.55 143.699H1164.64M1135.55 172.766V201.832M1135.55 172.766H1164.64M1135.55 201.832V230.899M1135.55 201.832H1164.64M1135.55 230.899V259.966M1135.55 230.899H1164.64M1135.55 259.966V289.032M1135.55 259.966H1164.64M1135.55 289.032V318.099M1135.55 289.032H1164.64M1135.55 318.099H1164.64M1164.64 -263.234V-234.168M1164.64 -263.234H1193.73M1164.64 -234.168V-205.101M1164.64 -234.168H1193.73M1164.64 -205.101V-176.034M1164.64 -205.101H1193.73M1164.64 -176.034V-146.968M1164.64 -176.034H1193.73M1164.64 -146.968V-117.901M1164.64 -146.968H1193.73M1164.64 -117.901V-88.8344M1164.64 -117.901H1193.73M1164.64 -88.8344V-59.7677M1164.64 -88.8344H1193.73M1164.64 -59.7677V-30.7011M1164.64 -59.7677H1193.73M1164.64 -30.7011V-1.63439M1164.64 -30.7011H1193.73M1164.64 -1.63439V27.4323M1164.64 -1.63439H1193.73M1164.64 27.4323V56.4989M1164.64 27.4323H1193.73M1164.64 56.4989V85.5656M1164.64 56.4989H1193.73M1164.64 85.5656V114.632M1164.64 85.5656H1193.73M1164.64 114.632V143.699M1164.64 114.632H1193.73M1164.64 143.699V172.766M1164.64 143.699H1193.73M1164.64 172.766V201.832M1164.64 172.766H1193.73M1164.64 201.832V230.899M1164.64 201.832H1193.73M1164.64 230.899V259.966M1164.64 230.899H1193.73M1164.64 259.966V289.032M1164.64 259.966H1193.73M1164.64 289.032V318.099M1164.64 289.032H1193.73M1164.64 318.099H1193.73M1193.73 -263.234V-234.168M1193.73 -263.234H1222.82M1193.73 -234.168V-205.101M1193.73 -234.168H1222.82M1193.73 -205.101V-176.034M1193.73 -205.101H1222.82M1193.73 -176.034V-146.968M1193.73 -176.034H1222.82M1193.73 -146.968V-117.901M1193.73 -146.968H1222.82M1193.73 -117.901V-88.8344M1193.73 -117.901H1222.82M1193.73 -88.8344V-59.7677M1193.73 -88.8344H1222.82M1193.73 -59.7677V-30.7011M1193.73 -59.7677H1222.82M1193.73 -30.7011V-1.63439M1193.73 -30.7011H1222.82M1193.73 -1.63439V27.4323M1193.73 -1.63439H1222.82M1193.73 27.4323V56.4989M1193.73 27.4323H1222.82M1193.73 56.4989V85.5656M1193.73 56.4989H1222.82M1193.73 85.5656V114.632M1193.73 85.5656H1222.82M1193.73 114.632V143.699M1193.73 114.632H1222.82M1193.73 143.699V172.766M1193.73 143.699H1222.82M1193.73 172.766V201.832M1193.73 172.766H1222.82M1193.73 201.832V230.899M1193.73 201.832H1222.82M1193.73 230.899V259.966M1193.73 230.899H1222.82M1193.73 259.966V289.032M1193.73 259.966H1222.82M1193.73 289.032V318.099M1193.73 289.032H1222.82M1193.73 318.099H1222.82M1222.82 -263.234V-234.168M1222.82 -263.234H1251.91M1222.82 -234.168V-205.101M1222.82 -234.168H1251.91M1222.82 -205.101V-176.034M1222.82 -205.101H1251.91M1222.82 -176.034V-146.968M1222.82 -176.034H1251.91M1222.82 -146.968V-117.901M1222.82 -146.968H1251.91M1222.82 -117.901V-88.8344M1222.82 -117.901H1251.91M1222.82 -88.8344V-59.7677M1222.82 -88.8344H1251.91M1222.82 -59.7677V-30.7011M1222.82 -59.7677H1251.91M1222.82 -30.7011V-1.63439M1222.82 -30.7011H1251.91M1222.82 -1.63439V27.4323M1222.82 -1.63439H1251.91M1222.82 27.4323V56.4989M1222.82 27.4323H1251.91M1222.82 56.4989V85.5656M1222.82 56.4989H1251.91M1222.82 85.5656V114.632M1222.82 85.5656H1251.91M1222.82 114.632V143.699M1222.82 114.632H1251.91M1222.82 143.699V172.766M1222.82 143.699H1251.91M1222.82 172.766V201.832M1222.82 172.766H1251.91M1222.82 201.832V230.899M1222.82 201.832H1251.91M1222.82 230.899V259.966M1222.82 230.899H1251.91M1222.82 259.966V289.032M1222.82 259.966H1251.91M1222.82 289.032V318.099M1222.82 289.032H1251.91M1222.82 318.099H1251.91M1251.91 -263.234V-234.168M1251.91 -263.234H1281V-234.168M1251.91 -234.168V-205.101M1251.91 -234.168H1281M1251.91 -205.101V-176.034M1251.91 -205.101H1281M1251.91 -176.034V-146.968M1251.91 -176.034H1281M1251.91 -146.968V-117.901M1251.91 -146.968H1281M1251.91 -117.901V-88.8344M1251.91 -117.901H1281M1251.91 -88.8344V-59.7677M1251.91 -88.8344H1281M1251.91 -59.7677V-30.7011M1251.91 -59.7677H1281M1251.91 -30.7011V-1.63439M1251.91 -30.7011H1281M1251.91 -1.63439V27.4323M1251.91 -1.63439H1281M1251.91 27.4323V56.4989M1251.91 27.4323H1281M1251.91 56.4989V85.5656M1251.91 56.4989H1281M1251.91 85.5656V114.632M1251.91 85.5656H1281M1251.91 114.632V143.699M1251.91 114.632H1281M1251.91 143.699V172.766M1251.91 143.699H1281M1251.91 172.766V201.832M1251.91 172.766H1281M1251.91 201.832V230.899M1251.91 201.832H1281M1251.91 230.899V259.966M1251.91 230.899H1281M1251.91 259.966V289.032M1251.91 259.966H1281M1251.91 289.032V318.099M1251.91 289.032H1281M1251.91 318.099H1281V289.032M1281 -234.168V-205.101M1281 -205.101V-176.034M1281 -176.034V-146.968M1281 -146.968V-117.901M1281 -117.901V-88.8344M1281 -88.8344V-59.7677M1281 -59.7677V-30.7011M1281 -30.7011V-1.63439M1281 -1.63439V27.4323M1281 27.4323V56.4989M1281 56.4989V85.5656M1281 85.5656V114.632M1281 114.632V143.699M1281 143.699V172.766M1281 172.766V201.832M1281 201.832V230.899M1281 230.899V259.966M1281 259.966V289.032" stroke="url(#paint0_radial_449_37526)" stroke-width="0.536408"/>
<defs>
<radialGradient id="paint0_radial_449_37526" cx="0" cy="0" r="1" gradientUnits="userSpaceOnUse" gradientTransform="translate(641 27.4322) rotate(-90) scale(240.333 798.12)">
<stop stop-color="#8F8F8F"/>
<stop offset="1" stop-color="#8F8F8F" stop-opacity="0"/>
</radialGradient>
</defs>
</svg>
