<svg width="45" height="45" viewBox="0 0 45 45" fill="none" xmlns="http://www.w3.org/2000/svg">
<g clip-path="url(#clip0_449_36745)">
<rect x="0.25" y="0.5" width="44" height="44" rx="22" fill="url(#paint0_linear_449_36745)"/>
<mask id="path-2-inside-1_449_36745" fill="white">
<path d="M0.25 22.5C0.25 10.3497 10.0997 0.5 22.25 0.5C34.4003 0.5 44.25 10.3497 44.25 22.5C44.25 34.6503 34.4003 44.5 22.25 44.5C10.0997 44.5 0.25 34.6503 0.25 22.5Z"/>
</mask>
<path d="M0.25 21.5C0.25 9.34974 10.0997 -0.5 22.25 -0.5C34.4003 -0.5 44.25 9.34974 44.25 21.5V22.5C44.25 10.902 34.4003 1.5 22.25 1.5C10.0997 1.5 0.25 10.902 0.25 22.5V21.5ZM44.25 44.5H0.25H44.25ZM0.25 44.5V0.5V44.5ZM44.25 0.5V44.5V0.5Z" fill="white" fill-opacity="0.12" mask="url(#path-2-inside-1_449_36745)"/>
<g clip-path="url(#clip1_449_36745)">
<path d="M15.2505 17.7005C15.2505 17.117 15.4822 16.5574 15.8948 16.1448C16.3074 15.7322 16.867 15.5005 17.4505 15.5005H18.4505C19.0314 15.5001 19.5886 15.2701 20.0005 14.8605L20.7005 14.1605C20.9049 13.9549 21.148 13.7917 21.4157 13.6804C21.6834 13.569 21.9705 13.5117 22.2605 13.5117C22.5504 13.5117 22.8375 13.569 23.1052 13.6804C23.3729 13.7917 23.616 13.9549 23.8205 14.1605L24.5205 14.8605C24.9325 15.2705 25.4905 15.5005 26.0705 15.5005H27.0705C27.6539 15.5005 28.2135 15.7322 28.6261 16.1448C29.0387 16.5574 29.2705 17.117 29.2705 17.7005V18.7005C29.2705 19.2805 29.5005 19.8385 29.9105 20.2505L30.6105 20.9505C30.8161 21.1549 30.9792 21.398 31.0906 21.6657C31.2019 21.9334 31.2592 22.2205 31.2592 22.5105C31.2592 22.8004 31.2019 23.0875 31.0906 23.3552C30.9792 23.6229 30.8161 23.866 30.6105 24.0705L29.9105 24.7705C29.5009 25.1824 29.2708 25.7396 29.2705 26.3205V27.3205C29.2705 27.9039 29.0387 28.4635 28.6261 28.8761C28.2135 29.2887 27.6539 29.5205 27.0705 29.5205H26.0705C25.4896 29.5208 24.9324 29.7509 24.5205 30.1605L23.8205 30.8605C23.616 31.0661 23.3729 31.2292 23.1052 31.3406C22.8375 31.4519 22.5504 31.5092 22.2605 31.5092C21.9705 31.5092 21.6834 31.4519 21.4157 31.3406C21.148 31.2292 20.9049 31.0661 20.7005 30.8605L20.0005 30.1605C19.5886 29.7509 19.0314 29.5208 18.4505 29.5205H17.4505C16.867 29.5205 16.3074 29.2887 15.8948 28.8761C15.4822 28.4635 15.2505 27.9039 15.2505 27.3205V26.3205C15.2501 25.7396 15.0201 25.1824 14.6105 24.7705L13.9105 24.0705C13.7049 23.866 13.5417 23.6229 13.4304 23.3552C13.319 23.0875 13.2617 22.8004 13.2617 22.5105C13.2617 22.2205 13.319 21.9334 13.4304 21.6657C13.5417 21.398 13.7049 21.1549 13.9105 20.9505L14.6105 20.2505C15.0201 19.8386 15.2501 19.2814 15.2505 18.7005V17.7005Z" stroke="#D1D1D1" stroke-width="1.5" stroke-linecap="round" stroke-linejoin="round"/>
<path d="M19.25 22.5L21.25 24.5L25.25 20.5" stroke="#D1D1D1" stroke-width="1.5" stroke-linecap="round" stroke-linejoin="round"/>
</g>
</g>
<defs>
<linearGradient id="paint0_linear_449_36745" x1="22.25" y1="0.5" x2="22.25" y2="44.5" gradientUnits="userSpaceOnUse">
<stop stop-color="white" stop-opacity="0"/>
<stop offset="1" stop-color="white" stop-opacity="0.12"/>
</linearGradient>
<clipPath id="clip0_449_36745">
<rect x="0.25" y="0.5" width="44" height="44" rx="22" fill="white"/>
</clipPath>
<clipPath id="clip1_449_36745">
<rect width="24" height="24" fill="white" transform="translate(10.25 10.5)"/>
</clipPath>
</defs>
</svg>
