<svg width="24" height="25" viewBox="0 0 24 25" fill="none" xmlns="http://www.w3.org/2000/svg">
<path fill-rule="evenodd" clip-rule="evenodd" d="M3 5.27042C3 4.87158 3.15844 4.48908 3.44046 4.20706C3.72248 3.92504 4.10498 3.7666 4.50382 3.7666H19.4945C19.6922 3.76628 19.888 3.80494 20.0707 3.88038C20.2533 3.95582 20.4194 4.06656 20.5592 4.20624C20.699 4.34593 20.81 4.51182 20.8856 4.69443C20.9612 4.87704 21.0001 5.07277 21 5.27042V20.2611C21.0002 20.4588 20.9614 20.6546 20.8859 20.8373C20.8104 21.02 20.6996 21.186 20.5598 21.3259C20.4201 21.4657 20.2541 21.5766 20.0715 21.6522C19.8888 21.7278 19.6931 21.7667 19.4954 21.7666H4.50382C4.30627 21.7666 4.11065 21.7277 3.92814 21.6521C3.74564 21.5764 3.57982 21.4656 3.44017 21.3259C3.30052 21.1861 3.18976 21.0202 3.11424 20.8377C3.03871 20.6552 2.99989 20.4595 3 20.262V5.27042ZM10.1247 10.6295H12.5621V11.8535C12.9139 11.1499 13.8139 10.5166 15.1664 10.5166C17.7592 10.5166 18.3736 11.9181 18.3736 14.4897V19.2531H15.7497V15.0755C15.7497 13.611 15.3979 12.7846 14.5045 12.7846C13.2649 12.7846 12.7495 13.6756 12.7495 15.0755V19.2531H10.1247V10.6295ZM5.62473 19.1411H8.24945V10.5166H5.62473V19.1411ZM8.625 7.70369C8.62995 7.92842 8.58996 8.15188 8.50738 8.36095C8.4248 8.57002 8.30129 8.76048 8.1441 8.92117C7.98691 9.08186 7.79921 9.20953 7.59201 9.2967C7.38481 9.38386 7.16229 9.42876 6.9375 9.42876C6.71271 9.42876 6.49019 9.38386 6.28299 9.2967C6.07579 9.20953 5.88809 9.08186 5.7309 8.92117C5.57371 8.76048 5.4502 8.57002 5.36762 8.36095C5.28504 8.15188 5.24505 7.92842 5.25 7.70369C5.25971 7.26257 5.44177 6.84279 5.75718 6.53425C6.07259 6.22571 6.49627 6.05294 6.9375 6.05294C7.37873 6.05294 7.80241 6.22571 8.11782 6.53425C8.43323 6.84279 8.61529 7.26257 8.625 7.70369Z" fill="#662978"/>
</svg>
