<svg width="19" height="18" viewBox="0 0 19 18" fill="none" xmlns="http://www.w3.org/2000/svg">
<path d="M17.6077 9.56251L10.625 2.57977C10.5209 2.47485 10.397 2.39167 10.2605 2.33506C10.124 2.27844 9.97756 2.24953 9.82977 2.25001H3.31251C3.16332 2.25001 3.02025 2.30927 2.91476 2.41476C2.80927 2.52025 2.75001 2.66332 2.75001 2.81251V9.32977C2.74953 9.47756 2.77844 9.62397 2.83506 9.76049C2.89167 9.89701 2.97485 10.0209 3.07977 10.125L10.0625 17.1077C10.167 17.2122 10.291 17.2951 10.4275 17.3517C10.564 17.4082 10.7103 17.4373 10.8581 17.4373C11.0059 17.4373 11.1522 17.4082 11.2887 17.3517C11.4252 17.2951 11.5492 17.2122 11.6537 17.1077L17.6077 11.1537C17.7122 11.0492 17.7951 10.9252 17.8517 10.7887C17.9082 10.6522 17.9373 10.5058 17.9373 10.3581C17.9373 10.2103 17.9082 10.064 17.8517 9.92751C17.7951 9.79101 17.7122 9.66697 17.6077 9.56251ZM10.8577 16.3125L3.87501 9.32977V3.37501H9.82977L16.8125 10.3577L10.8577 16.3125ZM7.25001 5.90626C7.25001 6.07313 7.20052 6.23626 7.10781 6.37502C7.0151 6.51377 6.88332 6.62192 6.72914 6.68578C6.57497 6.74964 6.40532 6.76635 6.24165 6.73379C6.07798 6.70124 5.92763 6.62088 5.80963 6.50288C5.69163 6.38488 5.61127 6.23453 5.57872 6.07086C5.54616 5.90719 5.56287 5.73754 5.62673 5.58337C5.69059 5.42919 5.79874 5.29742 5.93749 5.2047C6.07625 5.11199 6.23938 5.06251 6.40626 5.06251C6.63003 5.06251 6.84464 5.1514 7.00288 5.30963C7.16111 5.46787 7.25001 5.68248 7.25001 5.90626Z" fill="#5C5C5C"/>
</svg>
