<svg width="45" height="44" viewBox="0 0 45 44" fill="none" xmlns="http://www.w3.org/2000/svg">
<g clip-path="url(#clip0_449_36737)">
<rect x="0.75" width="44" height="44" rx="22" fill="url(#paint0_linear_449_36737)"/>
<mask id="path-2-inside-1_449_36737" fill="white">
<path d="M0.75 22C0.75 9.84974 10.5997 0 22.75 0V0C34.9003 0 44.75 9.84974 44.75 22V22C44.75 34.1503 34.9003 44 22.75 44V44C10.5997 44 0.75 34.1503 0.75 22V22Z"/>
</mask>
<path d="M0.75 21C0.75 8.84974 10.5997 -1 22.75 -1C34.9003 -1 44.75 8.84974 44.75 21V22C44.75 10.402 34.9003 1 22.75 1C10.5997 1 0.75 10.402 0.75 22V21ZM44.75 44H0.75H44.75ZM0.75 44V0V44ZM44.75 0V44V0Z" fill="white" fill-opacity="0.12" mask="url(#path-2-inside-1_449_36737)"/>
<g clip-path="url(#clip1_449_36737)">
<path d="M14.75 22V16C14.75 15.4696 14.9607 14.9609 15.3358 14.5858C15.7109 14.2107 16.2196 14 16.75 14H28.75C29.2804 14 29.7891 14.2107 30.1642 14.5858C30.5393 14.9609 30.75 15.4696 30.75 16V28C30.75 28.5304 30.5393 29.0391 30.1642 29.4142C29.7891 29.7893 29.2804 30 28.75 30H22.75" stroke="#D1D1D1" stroke-width="1.5" stroke-linecap="round" stroke-linejoin="round"/>
<path d="M14.75 20H30.75" stroke="#D1D1D1" stroke-width="1.5" stroke-linecap="round" stroke-linejoin="round"/>
<path d="M20.75 14V23" stroke="#D1D1D1" stroke-width="1.5" stroke-linecap="round" stroke-linejoin="round"/>
<path d="M14.0312 28.5C14.0312 29.0304 14.242 29.5391 14.617 29.9142C14.9921 30.2893 15.5008 30.5 16.0313 30.5C16.5617 30.5 17.0704 30.2893 17.4455 29.9142C17.8205 29.5391 18.0312 29.0304 18.0312 28.5C18.0312 27.9696 17.8205 27.4609 17.4455 27.0858C17.0704 26.7107 16.5617 26.5 16.0313 26.5C15.5008 26.5 14.9921 26.7107 14.617 27.0858C14.242 27.4609 14.0312 27.9696 14.0312 28.5Z" stroke="#D1D1D1" stroke-width="1.5" stroke-linecap="round" stroke-linejoin="round"/>
<path d="M16.0312 25V26.5" stroke="#D1D1D1" stroke-width="1.5" stroke-linecap="round" stroke-linejoin="round"/>
<path d="M16.0312 30.5V32" stroke="#D1D1D1" stroke-width="1.5" stroke-linecap="round" stroke-linejoin="round"/>
<path d="M19.0607 26.75L17.7617 27.5" stroke="#D1D1D1" stroke-width="1.5" stroke-linecap="round" stroke-linejoin="round"/>
<path d="M14.3 29.5L13 30.25" stroke="#D1D1D1" stroke-width="1.5" stroke-linecap="round" stroke-linejoin="round"/>
<path d="M13 26.75L14.3 27.5" stroke="#D1D1D1" stroke-width="1.5" stroke-linecap="round" stroke-linejoin="round"/>
<path d="M17.7617 29.5L19.0617 30.25" stroke="#D1D1D1" stroke-width="1.5" stroke-linecap="round" stroke-linejoin="round"/>
</g>
</g>
<defs>
<linearGradient id="paint0_linear_449_36737" x1="22.75" y1="0" x2="22.75" y2="44" gradientUnits="userSpaceOnUse">
<stop stop-color="white" stop-opacity="0"/>
<stop offset="1" stop-color="white" stop-opacity="0.12"/>
</linearGradient>
<clipPath id="clip0_449_36737">
<rect x="0.75" width="44" height="44" rx="22" fill="white"/>
</clipPath>
<clipPath id="clip1_449_36737">
<rect width="24" height="24" fill="white" transform="translate(10.75 10)"/>
</clipPath>
</defs>
</svg>
