<svg width="18" height="18" viewBox="0 0 18 18" fill="none" xmlns="http://www.w3.org/2000/svg">
<g clip-path="url(#clip0_449_36173)">
<path d="M10.0047 15.4245C9.67767 15.552 9.34167 15.6607 8.99817 15.75C7.83058 15.4472 6.73578 14.9127 5.77883 14.1784C4.82187 13.444 4.0223 12.5248 3.42761 11.4754C2.83293 10.426 2.45527 9.26767 2.31707 8.06939C2.17888 6.8711 2.28297 5.65726 2.62317 4.5C4.95981 4.60692 7.24629 3.79993 8.99817 2.25C10.75 3.79993 13.0365 4.60692 15.3732 4.5C15.8282 6.04846 15.8585 7.6908 15.4609 9.255" stroke="#D1D1D1" stroke-width="1.125" stroke-linecap="round" stroke-linejoin="round"/>
<path d="M14.25 12L12.75 14.25H15.75L14.25 16.5" stroke="#D1D1D1" stroke-width="1.125" stroke-linecap="round" stroke-linejoin="round"/>
</g>
<defs>
<clipPath id="clip0_449_36173">
<rect width="18" height="18" fill="white"/>
</clipPath>
</defs>
</svg>
