<svg width="24" height="25" viewBox="0 0 24 25" fill="none" xmlns="http://www.w3.org/2000/svg">
<path d="M5.56752 3.7666C4.14922 3.7666 2.99609 4.91973 2.99609 6.33803V19.1952C2.99609 20.6135 4.14922 21.7666 5.56752 21.7666H18.4247C19.843 21.7666 20.9961 20.6135 20.9961 19.1952V6.33803C20.9961 4.91973 19.843 3.7666 18.4247 3.7666H5.56752ZM17.5046 7.1416L13.334 11.9068L18.2398 18.3916H14.3988L11.3934 14.4581L7.95011 18.3916H6.04163L10.5015 13.2929L5.79654 7.1416H9.73404L12.4541 10.7376L15.5961 7.1416H17.5046ZM15.9858 17.2505L9.15949 8.2224H8.02243L14.9251 17.2505H15.9818H15.9858Z" fill="#662978"/>
</svg>
