<svg width="76" height="32" viewBox="0 0 76 32" fill="none" xmlns="http://www.w3.org/2000/svg">
<g filter="url(#filter0_i_566_8486)">
<rect x="26.8711" y="0.841309" width="22.4215" height="12.4564" rx="1.99302" fill="#2C72FF"/>
<g filter="url(#filter1_d_566_8486)">
<rect x="40.502" y="3.32922" width="8.88974" height="1.34529" rx="0.672644" transform="rotate(115.093 40.502 3.32922)" fill="#F4961D"/>
<path fill-rule="evenodd" clip-rule="evenodd" d="M31.7798 4.44041C31.7798 4.06891 32.0809 3.76776 32.4524 3.76776C32.8239 3.76776 33.125 4.06891 33.125 4.44041V6.18928H34.8751C35.2465 6.18928 35.5477 6.49043 35.5477 6.86192C35.5477 7.23341 35.2465 7.53457 34.8751 7.53457H33.125V9.28344C33.125 9.65494 32.8239 9.95609 32.4524 9.95609C32.0809 9.95609 31.7798 9.65494 31.7798 9.28344V7.53457H30.032C29.6605 7.53457 29.3594 7.23341 29.3594 6.86192C29.3594 6.49043 29.6605 6.18928 30.032 6.18928H31.7798V4.44041Z" fill="#F4961D"/>
<path fill-rule="evenodd" clip-rule="evenodd" d="M41.5666 5.42475C41.2798 5.2592 41.1816 4.89253 41.3471 4.60577C41.5127 4.31902 41.8794 4.22077 42.1661 4.38633L45.9044 6.54465C46.1912 6.71021 46.2894 7.07688 46.1239 7.36363C46.0574 7.47869 45.9586 7.5634 45.8456 7.6129L42.1592 9.74126C41.8724 9.90682 41.5057 9.80857 41.3402 9.52182C41.1746 9.23506 41.2729 8.8684 41.5596 8.70284L44.402 7.06179L41.5666 5.42475Z" fill="#F4961D"/>
</g>
</g>
<ellipse cx="24.5043" cy="7.87926" rx="0.99651" ry="0.99651" fill="#F4961D"/>
<rect x="51.4297" y="8.93805" width="2.0553" height="2.0553" transform="rotate(27.657 51.4297 8.93805)" fill="#F4961D"/>
<rect x="52.2871" y="4.64062" width="0.625889" height="2.14002" transform="rotate(13.6281 52.2871 4.64062)" fill="#F4961D"/>
<rect x="53.4277" y="5.70184" width="0.625889" height="2.0553" transform="rotate(102.72 53.4277 5.70184)" fill="#F4961D"/>
<path d="M22.9503 2.81805L25.325 3.3204L23.7026 5.12572L22.9503 2.81805Z" fill="#F4961D"/>
<path d="M70.2422 23.1832C70.2422 23.007 70.2715 22.853 70.3302 22.7209C70.3963 22.5888 70.477 22.4787 70.5724 22.3907C70.6678 22.2953 70.7742 22.2256 70.8916 22.1816C71.0163 22.1375 71.1337 22.1155 71.2438 22.1155C71.4712 22.1155 71.6583 22.1596 71.8051 22.2476C71.9592 22.3283 72.0766 22.4751 72.1573 22.6879C72.3187 23.1061 72.6085 23.3152 73.0268 23.3152C73.2836 23.3152 73.5001 23.2565 73.6762 23.1391C73.8523 23.0144 73.9403 22.8603 73.9403 22.6769C73.9403 22.5228 73.8486 22.4054 73.6652 22.3247C73.4891 22.2366 73.2689 22.1559 73.0048 22.0825C72.7406 22.0091 72.4508 21.9284 72.1353 21.8404C71.8198 21.745 71.5299 21.6166 71.2658 21.4552C71.0016 21.2937 70.7778 21.0809 70.5944 20.8168C70.4183 20.5526 70.3302 20.2078 70.3302 19.7822C70.3302 19.4153 70.3999 19.0815 70.5394 18.7806C70.6861 18.4798 70.8916 18.223 71.1557 18.0102C71.4199 17.7974 71.7427 17.636 72.1243 17.5259C72.5058 17.4085 72.9351 17.3498 73.412 17.3498C74.2045 17.3498 74.8025 17.5075 75.206 17.8231C75.6096 18.1386 75.8114 18.5825 75.8114 19.1548C75.8114 19.485 75.7233 19.7272 75.5472 19.8812C75.3711 20.0353 75.1473 20.1124 74.8759 20.1124C74.6044 20.1124 74.4099 20.0647 74.2925 19.9693C74.1751 19.8739 74.0724 19.7198 73.9843 19.507C73.911 19.3383 73.8192 19.2172 73.7092 19.1438C73.5991 19.0631 73.4524 19.0228 73.2689 19.0228C73.0341 19.0228 72.8433 19.0778 72.6966 19.1879C72.5498 19.2906 72.4765 19.4153 72.4765 19.5621C72.4765 19.7088 72.5609 19.8262 72.7296 19.9143C72.9057 20.0023 73.1258 20.083 73.39 20.1564C73.6541 20.2298 73.9366 20.3142 74.2375 20.4096C74.5383 20.5049 74.8208 20.637 75.085 20.8058C75.3491 20.9745 75.5656 21.1947 75.7343 21.4662C75.9104 21.7303 75.9985 22.0788 75.9985 22.5118C75.9985 22.8933 75.9251 23.2382 75.7784 23.5464C75.639 23.8545 75.4335 24.1187 75.162 24.3388C74.8979 24.5589 74.5713 24.7277 74.1825 24.8451C73.7936 24.9625 73.3533 25.0212 72.8617 25.0212C72.4435 25.0212 72.0692 24.9735 71.739 24.8781C71.4162 24.7827 71.1447 24.6543 70.9246 24.4929C70.7045 24.3241 70.5357 24.1297 70.4183 23.9096C70.3009 23.6821 70.2422 23.44 70.2422 23.1832Z" fill="#F4961D"/>
<path d="M65.3822 24.9882C65.1107 24.9882 64.898 24.8598 64.7439 24.6029C64.5898 24.3388 64.4724 24.0159 64.3917 23.6344C64.3183 23.2528 64.2706 22.8493 64.2486 22.4237C64.2339 21.9981 64.2266 21.6202 64.2266 21.29C64.2266 20.8645 64.2339 20.4205 64.2486 19.9583C64.2633 19.4887 64.3109 19.0594 64.3917 18.6705C64.4797 18.2816 64.6155 17.9625 64.7989 17.713C64.9897 17.4562 65.2612 17.3278 65.6134 17.3278C65.7234 17.3278 65.8151 17.3461 65.8885 17.3828C65.9619 17.4121 66.0243 17.4488 66.0756 17.4929C66.127 17.5369 66.171 17.5772 66.2077 17.6139C66.2517 17.6433 66.2958 17.6579 66.3398 17.6579C66.3985 17.6579 66.4498 17.6433 66.4939 17.6139C66.5452 17.5772 66.6039 17.5405 66.67 17.5039C66.736 17.4672 66.8241 17.4342 66.9341 17.4048C67.0442 17.3681 67.1946 17.3498 67.3854 17.3498C67.6275 17.3498 67.8587 17.4011 68.0788 17.5039C68.2989 17.6066 68.4897 17.7497 68.6511 17.9331C68.8199 18.1165 68.952 18.3367 69.0473 18.5935C69.1501 18.8503 69.2014 19.1365 69.2014 19.452C69.2014 19.6721 69.1574 19.8702 69.0694 20.0463C68.9886 20.2224 68.8859 20.3802 68.7612 20.5196C68.6364 20.659 68.5007 20.7727 68.3539 20.8608C68.2072 20.9488 68.0678 21.0149 67.9357 21.0589C68.1265 21.0662 68.3136 21.1103 68.497 21.191C68.6878 21.2644 68.8566 21.3634 69.0033 21.4882C69.1501 21.6129 69.2711 21.7633 69.3665 21.9394C69.4619 22.1155 69.5096 22.31 69.5096 22.5227C69.5096 22.9337 69.4142 23.2932 69.2234 23.6014C69.0327 23.9095 68.7832 24.1664 68.475 24.3718C68.1668 24.5773 67.8146 24.7314 67.4184 24.8341C67.0295 24.9368 66.637 24.9882 66.2407 24.9882H65.3822ZM66.637 20.0683C66.747 20.0683 66.8424 20.0096 66.9231 19.8922C67.0112 19.7748 67.0552 19.6428 67.0552 19.496C67.0552 19.3713 67.0185 19.2685 66.9451 19.1878C66.8791 19.1071 66.7874 19.0668 66.67 19.0668C66.5452 19.0668 66.4425 19.1108 66.3618 19.1988C66.2884 19.2869 66.2517 19.4043 66.2517 19.551C66.2517 19.6978 66.2884 19.8225 66.3618 19.9253C66.4425 20.0206 66.5342 20.0683 66.637 20.0683ZM66.736 23.2492C66.9268 23.2492 67.0625 23.1758 67.1432 23.029C67.2313 22.8823 67.2753 22.7319 67.2753 22.5778C67.2753 22.4457 67.2203 22.332 67.1102 22.2366C67.0002 22.1339 66.8864 22.0825 66.769 22.0825C66.659 22.0825 66.5562 22.1265 66.4609 22.2146C66.3655 22.2953 66.3178 22.442 66.3178 22.6548C66.3178 22.8896 66.3618 23.0474 66.4498 23.1281C66.5379 23.2088 66.6333 23.2492 66.736 23.2492Z" fill="#F4961D"/>
<path d="M62.6305 25.01C62.381 25.01 62.1572 24.9733 61.9591 24.9C61.7683 24.8266 61.6142 24.6798 61.4968 24.4597C61.4088 24.2909 61.3391 24.1148 61.2877 23.9314C61.2437 23.748 61.1519 23.5719 61.0125 23.4031C60.9171 23.293 60.8071 23.2123 60.6823 23.161C60.5576 23.1096 60.4292 23.0839 60.2971 23.0839C60.1871 23.0839 60.077 23.1023 59.9669 23.1389C59.8569 23.1756 59.7541 23.2233 59.6588 23.282C59.5267 23.3701 59.4276 23.4765 59.3616 23.6012C59.3029 23.7186 59.2515 23.8433 59.2075 23.9754C59.1708 24.1002 59.1341 24.2286 59.0974 24.3606C59.0681 24.4854 59.0204 24.5954 58.9543 24.6908C58.8736 24.8082 58.7636 24.8963 58.6242 24.955C58.4847 25.0137 58.2609 25.043 57.9528 25.043C57.7253 25.043 57.5199 24.9697 57.3364 24.8229C57.1603 24.6688 57.0723 24.4744 57.0723 24.2396C57.0723 24.0635 57.0979 23.77 57.1493 23.3591C57.208 22.9482 57.2924 22.4859 57.4025 21.9723C57.5199 21.4586 57.6666 20.9267 57.8427 20.3763C58.0261 19.8187 58.2389 19.3124 58.4811 18.8575C58.7232 18.3952 58.9984 18.0173 59.3065 17.7238C59.6147 17.4303 59.9596 17.2836 60.3411 17.2836C60.7227 17.2836 61.0676 17.434 61.3757 17.7348C61.6839 18.0283 61.9554 18.4062 62.1902 18.8685C62.425 19.3307 62.6268 19.8407 62.7956 20.3984C62.9717 20.956 63.1147 21.499 63.2248 22.0273C63.3349 22.5483 63.4156 23.0179 63.4669 23.4361C63.5183 23.8544 63.544 24.1552 63.544 24.3386C63.544 24.5661 63.4743 24.7349 63.3349 24.8449C63.1955 24.955 62.9607 25.01 62.6305 25.01ZM60.9025 20.8716C60.8878 20.7029 60.8291 20.5451 60.7264 20.3984C60.6236 20.2516 60.4952 20.1782 60.3411 20.1782C60.1504 20.1782 59.9963 20.2589 59.8789 20.4204C59.7688 20.5818 59.7138 20.7652 59.7138 20.9707C59.7138 21.1761 59.7725 21.3339 59.8899 21.444C60.0073 21.554 60.1467 21.6091 60.3081 21.6091C60.3962 21.6091 60.4769 21.587 60.5503 21.543C60.6236 21.4917 60.686 21.433 60.7374 21.3669C60.7961 21.2935 60.8401 21.2128 60.8694 21.1248C60.8988 21.0367 60.9098 20.9523 60.9025 20.8716Z" fill="#F4961D"/>
<path d="M54.958 25.0102C54.5324 25.0102 54.1728 24.9845 53.8793 24.9332C53.5932 24.8745 53.3584 24.7644 53.1749 24.603C52.9988 24.4415 52.8704 24.2104 52.7897 23.9096C52.7163 23.6087 52.6796 23.2162 52.6796 22.7319C52.6796 22.1155 52.6723 21.4918 52.6576 20.8608C52.6503 20.2224 52.6723 19.6428 52.7237 19.1218C52.775 18.6008 52.8704 18.1753 53.0098 17.8451C53.1566 17.5149 53.384 17.3498 53.6922 17.3498C54.0004 17.3498 54.2242 17.4378 54.3636 17.6139C54.5104 17.7827 54.6057 18.0065 54.6498 18.2853C54.7011 18.5568 54.7195 18.8687 54.7048 19.2209C54.6975 19.5731 54.6938 19.9289 54.6938 20.2885C54.6938 20.6774 54.6828 21.0589 54.6608 21.4331C54.6461 21.8 54.6498 22.1229 54.6718 22.4017C54.6938 22.6805 54.7488 22.9043 54.8369 23.0731C54.9323 23.2345 55.09 23.3042 55.3102 23.2822C55.4276 23.2675 55.545 23.2565 55.6624 23.2492C55.7871 23.2345 55.9045 23.2272 56.0146 23.2272C56.242 23.2272 56.4328 23.2749 56.5869 23.3703C56.741 23.4656 56.818 23.6638 56.818 23.9646C56.818 24.2288 56.7777 24.4305 56.697 24.5699C56.6236 24.7094 56.5098 24.8121 56.3558 24.8781C56.2017 24.9442 56.0072 24.9845 55.7724 24.9992C55.545 25.0065 55.2735 25.0102 54.958 25.0102Z" fill="#F4961D"/>
<path d="M49.0643 21.3231C49.0643 21.4478 49.068 21.6276 49.0753 21.8624C49.0827 22.0972 49.079 22.3503 49.0643 22.6218C49.057 22.8933 49.0313 23.1721 48.9873 23.4583C48.9506 23.7371 48.8882 23.9903 48.8002 24.2177C48.7195 24.4452 48.6057 24.6323 48.459 24.7791C48.3122 24.9258 48.1251 24.9992 47.8977 24.9992C47.7142 24.9992 47.5271 24.9148 47.3363 24.746C47.1529 24.5773 46.9768 24.3682 46.808 24.1187C46.6393 23.8619 46.4742 23.5867 46.3127 23.2932C46.1587 22.9924 46.0156 22.7172 45.8835 22.4677C45.7588 22.2109 45.645 21.9981 45.5423 21.8294C45.4396 21.6606 45.3589 21.5762 45.3002 21.5762C45.2488 21.5762 45.2121 21.6569 45.1901 21.8184C45.1681 21.9798 45.1534 22.1632 45.1461 22.3687C45.1461 22.5668 45.1497 22.7576 45.1571 22.941C45.1644 23.1244 45.1681 23.2382 45.1681 23.2822C45.1681 23.4363 45.1718 23.6124 45.1791 23.8105C45.1938 24.0086 45.1791 24.1957 45.1351 24.3718C45.091 24.5479 45.0067 24.6984 44.8819 24.8231C44.7645 24.9478 44.5737 25.0102 44.3096 25.0102C44.0161 25.0102 43.785 24.8818 43.6162 24.625C43.4548 24.3608 43.3337 24.0233 43.253 23.6124C43.1723 23.1942 43.1246 22.7356 43.1099 22.2366C43.0952 21.7303 43.0879 21.235 43.0879 20.7507C43.0879 20.3032 43.1026 19.8739 43.1319 19.463C43.1686 19.0521 43.2346 18.6926 43.33 18.3844C43.4328 18.0689 43.5722 17.8194 43.7483 17.636C43.9244 17.4452 44.1518 17.3498 44.4307 17.3498C44.6728 17.3498 44.8929 17.4415 45.091 17.625C45.2892 17.8011 45.4726 18.0285 45.6414 18.3073C45.8101 18.5788 45.9605 18.8723 46.0926 19.1879C46.2247 19.5034 46.3421 19.8005 46.4448 20.0794C46.5549 20.3509 46.6503 20.5783 46.731 20.7618C46.819 20.9379 46.8924 21.0259 46.9511 21.0259C47.0171 21.0259 47.0538 20.9379 47.0612 20.7618C47.0685 20.5783 47.0685 20.3509 47.0612 20.0794C47.0612 19.8005 47.0612 19.5034 47.0612 19.1879C47.0685 18.8723 47.0942 18.5788 47.1382 18.3073C47.1822 18.0285 47.2556 17.8011 47.3583 17.625C47.4611 17.4415 47.6152 17.3498 47.8206 17.3498C48.0701 17.3498 48.2719 17.4232 48.426 17.5699C48.5874 17.7093 48.7121 17.8928 48.8002 18.1202C48.8956 18.3477 48.9616 18.6082 48.9983 18.9017C49.0423 19.1879 49.068 19.4777 49.0753 19.7712C49.0827 20.0647 49.0827 20.3472 49.0753 20.6187C49.068 20.8902 49.0643 21.125 49.0643 21.3231Z" fill="#2C72FF"/>
<path d="M39.3796 25.0102C38.7412 25.0102 38.2312 24.8965 37.8497 24.669C37.4681 24.4415 37.1746 24.1114 36.9692 23.6784C36.7637 23.2455 36.628 22.7099 36.5619 22.0715C36.4959 21.4331 36.4629 20.7067 36.4629 19.8923C36.4629 19.518 36.4739 19.1768 36.4959 18.8687C36.5179 18.5605 36.5693 18.2927 36.65 18.0652C36.7307 17.8377 36.8481 17.6616 37.0022 17.5369C37.1636 17.4122 37.3801 17.3498 37.6516 17.3498C37.9598 17.3498 38.1909 17.4158 38.345 17.5479C38.4991 17.6726 38.6018 17.8487 38.6532 18.0762C38.7119 18.2963 38.7375 18.5568 38.7302 18.8577C38.7302 19.1585 38.7302 19.485 38.7302 19.8372C38.7302 20.1821 38.7302 20.5416 38.7302 20.9158C38.7375 21.2827 38.7595 21.6203 38.7962 21.9284C38.8329 22.2293 38.899 22.4787 38.9943 22.6769C39.0897 22.875 39.2255 22.974 39.4016 22.974C39.563 22.974 39.6841 22.8823 39.7648 22.6989C39.8528 22.5154 39.9152 22.288 39.9519 22.0165C39.9959 21.7377 40.0179 21.4368 40.0179 21.114C40.0253 20.7838 40.0289 20.4793 40.0289 20.2004C40.0289 19.7602 40.0253 19.364 40.0179 19.0117C40.0106 18.6595 40.0363 18.3624 40.095 18.1202C40.161 17.8708 40.2748 17.68 40.4362 17.5479C40.5976 17.4158 40.8471 17.3498 41.1846 17.3498C41.4928 17.3498 41.7202 17.4415 41.867 17.625C42.0138 17.8011 42.1128 18.0322 42.1642 18.3183C42.2229 18.5972 42.2486 18.9127 42.2412 19.2649C42.2412 19.6098 42.2412 19.9546 42.2412 20.2995C42.2412 21.0039 42.2119 21.6459 42.1532 22.2256C42.1018 22.8053 41.9771 23.3006 41.7789 23.7115C41.5882 24.1224 41.302 24.4415 40.9205 24.669C40.5462 24.8965 40.0326 25.0102 39.3796 25.0102Z" fill="#2C72FF"/>
<path d="M32.5802 25.0101C32.3527 25.0101 32.1619 24.9441 32.0078 24.812C31.8537 24.6726 31.729 24.4965 31.6336 24.2837C31.5382 24.0636 31.4649 23.8214 31.4135 23.5573C31.3695 23.2858 31.3365 23.0216 31.3144 22.7648C31.2924 22.5007 31.2814 22.2585 31.2814 22.0384C31.2814 21.8109 31.2814 21.6348 31.2814 21.5101C31.2814 21.2533 31.2741 20.9745 31.2594 20.6736C31.2521 20.3728 31.2521 20.0719 31.2594 19.7711C31.2741 19.4629 31.3034 19.1658 31.3475 18.8796C31.3988 18.5934 31.4795 18.3403 31.5896 18.1202C31.707 17.9 31.8648 17.7239 32.0629 17.5919C32.2683 17.4598 32.5288 17.3937 32.8443 17.3937C32.9837 17.3937 33.1562 17.3901 33.3616 17.3827C33.5744 17.3681 33.7982 17.3607 34.033 17.3607C34.2751 17.3607 34.5136 17.3754 34.7484 17.4047C34.9906 17.4268 35.207 17.4745 35.3978 17.5478C35.5959 17.6139 35.7537 17.7166 35.8711 17.856C35.9958 17.9881 36.0582 18.1605 36.0582 18.3733C36.0582 18.7108 35.9775 18.964 35.816 19.1327C35.6619 19.2942 35.4638 19.4079 35.2217 19.4739C34.9795 19.5326 34.7154 19.562 34.4292 19.562C34.1431 19.562 33.8679 19.573 33.6038 19.595C33.523 19.6023 33.457 19.6684 33.4056 19.7931C33.3616 19.9179 33.3359 20.0573 33.3286 20.2114C33.3213 20.3581 33.3359 20.4939 33.3726 20.6186C33.4093 20.7433 33.468 20.8057 33.5487 20.8057C33.8276 20.8057 34.0917 20.802 34.3412 20.7947C34.5907 20.7874 34.8108 20.8057 35.0016 20.8497C35.1997 20.8938 35.3538 20.9781 35.4638 21.1029C35.5812 21.2203 35.6399 21.4074 35.6399 21.6642C35.6399 21.8917 35.5996 22.0604 35.5189 22.1705C35.4381 22.2806 35.3354 22.3576 35.2107 22.4016C35.0859 22.4456 34.9539 22.4713 34.8145 22.4787C34.675 22.4787 34.543 22.486 34.4182 22.5007C34.3155 22.5154 34.2091 22.5264 34.099 22.5337C33.989 22.5337 33.8899 22.5484 33.8019 22.5777C33.7138 22.5997 33.6404 22.6401 33.5817 22.6988C33.523 22.7575 33.4937 22.8492 33.4937 22.9739C33.4937 23.3115 33.4974 23.6086 33.5047 23.8655C33.512 24.1223 33.4937 24.3351 33.4497 24.5038C33.4056 24.6726 33.3176 24.801 33.1855 24.8891C33.0608 24.9698 32.859 25.0101 32.5802 25.0101Z" fill="#2C72FF"/>
<path d="M27.8421 25.0321C27.5706 25.0321 27.3541 24.9661 27.1927 24.834C27.0386 24.6946 26.9212 24.5148 26.8405 24.2947C26.7671 24.0746 26.7194 23.8288 26.6974 23.5573C26.6827 23.2785 26.6754 22.996 26.6754 22.7098C26.6754 22.431 26.6754 22.1705 26.6754 21.9283C26.6827 21.6789 26.6864 21.4257 26.6864 21.1689C26.6864 20.9048 26.6864 20.6296 26.6864 20.3434C26.6864 20.0573 26.6864 19.7381 26.6864 19.3859C26.6864 19.3492 26.6534 19.3272 26.5873 19.3198C26.5213 19.3052 26.4479 19.2978 26.3672 19.2978C26.2865 19.2978 26.2095 19.3015 26.1361 19.3088C26.0627 19.3088 26.015 19.3088 25.993 19.3088C25.8389 19.3088 25.6848 19.2942 25.5307 19.2648C25.384 19.2281 25.2519 19.1768 25.1345 19.1107C25.0171 19.0373 24.9217 18.942 24.8483 18.8246C24.775 18.7072 24.7383 18.5641 24.7383 18.3953C24.7383 18.1385 24.8043 17.9404 24.9364 17.801C25.0685 17.6616 25.2666 17.5588 25.5307 17.4928C25.8022 17.4268 26.1398 17.3901 26.5433 17.3827C26.9469 17.3681 27.4202 17.3607 27.9631 17.3607C28.5061 17.3607 28.9574 17.3754 29.3169 17.4047C29.6838 17.4268 29.9736 17.4781 30.1864 17.5588C30.3992 17.6395 30.5496 17.7533 30.6377 17.9C30.7257 18.0468 30.7698 18.2412 30.7698 18.4834C30.7698 18.7328 30.7037 18.9383 30.5716 19.0997C30.4396 19.2611 30.2011 19.3419 29.8562 19.3419C29.7682 19.3419 29.6691 19.3382 29.5591 19.3309C29.449 19.3235 29.3426 19.3235 29.2399 19.3309C29.1445 19.3382 29.0638 19.3565 28.9977 19.3859C28.9317 19.4079 28.8987 19.4483 28.8987 19.507C28.9134 19.8005 28.9207 20.0683 28.9207 20.3104C28.9207 20.5452 28.917 20.78 28.9097 21.0148C28.9097 21.2423 28.9097 21.4771 28.9097 21.7192C28.9097 21.954 28.9134 22.2182 28.9207 22.5117C28.9354 22.8859 28.9354 23.2271 28.9207 23.5353C28.9134 23.8434 28.873 24.1113 28.7996 24.3387C28.7336 24.5589 28.6235 24.7313 28.4694 24.856C28.3227 24.9734 28.1136 25.0321 27.8421 25.0321Z" fill="#2C72FF"/>
<path d="M21.0352 25.0101C20.8078 25.0101 20.617 24.9441 20.4629 24.812C20.3088 24.6726 20.1841 24.4965 20.0887 24.2837C19.9933 24.0636 19.9199 23.8214 19.8686 23.5573C19.8246 23.2858 19.7915 23.0216 19.7695 22.7648C19.7475 22.5007 19.7365 22.2585 19.7365 22.0384C19.7365 21.8109 19.7365 21.6348 19.7365 21.5101C19.7365 21.2533 19.7292 20.9745 19.7145 20.6736C19.7071 20.3728 19.7071 20.0719 19.7145 19.7711C19.7292 19.4629 19.7585 19.1658 19.8025 18.8796C19.8539 18.5934 19.9346 18.3403 20.0447 18.1202C20.1621 17.9 20.3198 17.7239 20.518 17.5919C20.7234 17.4598 20.9839 17.3937 21.2994 17.3937C21.4388 17.3937 21.6112 17.3901 21.8167 17.3827C22.0295 17.3681 22.2533 17.3607 22.4881 17.3607C22.7302 17.3607 22.9687 17.3754 23.2035 17.4047C23.4456 17.4268 23.6621 17.4745 23.8529 17.5478C24.051 17.6139 24.2087 17.7166 24.3261 17.856C24.4509 17.9881 24.5132 18.1605 24.5132 18.3733C24.5132 18.7108 24.4325 18.964 24.2711 19.1327C24.117 19.2942 23.9189 19.4079 23.6768 19.4739C23.4346 19.5326 23.1705 19.562 22.8843 19.562C22.5981 19.562 22.323 19.573 22.0588 19.595C21.9781 19.6023 21.9121 19.6684 21.8607 19.7931C21.8167 19.9179 21.791 20.0573 21.7837 20.2114C21.7763 20.3581 21.791 20.4939 21.8277 20.6186C21.8644 20.7433 21.9231 20.8057 22.0038 20.8057C22.2826 20.8057 22.5468 20.802 22.7963 20.7947C23.0457 20.7874 23.2659 20.8057 23.4566 20.8497C23.6548 20.8938 23.8088 20.9781 23.9189 21.1029C24.0363 21.2203 24.095 21.4074 24.095 21.6642C24.095 21.8917 24.0547 22.0604 23.9739 22.1705C23.8932 22.2806 23.7905 22.3576 23.6658 22.4016C23.541 22.4456 23.4089 22.4713 23.2695 22.4787C23.1301 22.4787 22.998 22.486 22.8733 22.5007C22.7706 22.5154 22.6642 22.5264 22.5541 22.5337C22.4441 22.5337 22.345 22.5484 22.2569 22.5777C22.1689 22.5997 22.0955 22.6401 22.0368 22.6988C21.9781 22.7575 21.9488 22.8492 21.9488 22.9739C21.9488 23.3115 21.9524 23.6086 21.9598 23.8655C21.9671 24.1223 21.9488 24.3351 21.9047 24.5038C21.8607 24.6726 21.7727 24.801 21.6406 24.8891C21.5159 24.9698 21.3141 25.0101 21.0352 25.0101Z" fill="#2C72FF"/>
<path d="M17.3976 25.0102C17.2508 25.0102 17.0894 24.9955 16.9133 24.9662C16.7446 24.9368 16.5868 24.8928 16.44 24.8341C16.3006 24.7754 16.1832 24.6947 16.0878 24.592C15.9925 24.4892 15.9448 24.3682 15.9448 24.2288C15.9448 24.06 15.9741 23.9426 16.0328 23.8765C16.0915 23.8032 16.1576 23.7371 16.2309 23.6784C16.3116 23.6197 16.385 23.5537 16.4511 23.4803C16.5244 23.3996 16.5685 23.2712 16.5831 23.0951C16.6051 22.897 16.6198 22.6182 16.6272 22.2586C16.6345 21.8991 16.6382 21.5285 16.6382 21.147C16.6382 20.7581 16.6345 20.3875 16.6272 20.0353C16.6198 19.6758 16.6051 19.4006 16.5831 19.2099C16.5611 18.9897 16.5098 18.8503 16.429 18.7916C16.3483 18.7329 16.2639 18.6889 16.1759 18.6595C16.0952 18.6302 16.0181 18.5825 15.9448 18.5165C15.8787 18.4504 15.8457 18.3073 15.8457 18.0872C15.8457 17.9185 15.9081 17.7864 16.0328 17.691C16.1575 17.5883 16.308 17.5149 16.4841 17.4709C16.6602 17.4195 16.8399 17.3865 17.0234 17.3718C17.2142 17.3571 17.3756 17.3498 17.5077 17.3498C17.6617 17.3498 17.8342 17.3608 18.025 17.3828C18.2157 17.4048 18.3918 17.4452 18.5533 17.5039C18.722 17.5626 18.8614 17.6433 18.9715 17.746C19.0889 17.8414 19.1476 17.9661 19.1476 18.1202C19.1476 18.2596 19.1183 18.3587 19.0596 18.4174C19.0009 18.4688 18.9348 18.5201 18.8614 18.5715C18.7954 18.6155 18.733 18.6816 18.6743 18.7696C18.6156 18.8503 18.5826 18.9971 18.5753 19.2099C18.5753 19.2979 18.5716 19.4447 18.5643 19.6501C18.5569 19.8482 18.5496 20.0757 18.5423 20.3325C18.5349 20.5893 18.5276 20.8608 18.5202 21.147C18.5202 21.4331 18.5202 21.7083 18.5202 21.9725C18.5202 22.2293 18.5202 22.4604 18.5202 22.6659C18.5276 22.8713 18.5386 23.0217 18.5533 23.1171C18.5679 23.2272 18.6046 23.3262 18.6633 23.4143C18.7294 23.495 18.7954 23.5757 18.8614 23.6564C18.9275 23.7371 18.9862 23.8215 19.0375 23.9096C19.0889 23.9903 19.1146 24.0857 19.1146 24.1957C19.1146 24.3351 19.0632 24.4562 18.9605 24.5589C18.8578 24.6617 18.722 24.746 18.5533 24.8121C18.3918 24.8781 18.2084 24.9295 18.0029 24.9662C17.7975 24.9955 17.5957 25.0102 17.3976 25.0102Z" fill="#2C72FF"/>
<path d="M14.3675 17.2836C14.6977 17.2836 14.9618 17.3459 15.16 17.4707C15.3581 17.5881 15.4571 17.7605 15.4571 17.988C15.4571 18.1274 15.4461 18.3365 15.4241 18.6153C15.4021 18.8868 15.3654 19.206 15.314 19.5729C15.27 19.9324 15.2113 20.3213 15.1379 20.7396C15.0646 21.1505 14.9729 21.5614 14.8628 21.9723C14.7601 22.3832 14.639 22.7794 14.4996 23.161C14.3675 23.5425 14.2134 23.88 14.0373 24.1735C13.8612 24.4597 13.6668 24.6908 13.454 24.8669C13.2412 25.043 13.0064 25.1311 12.7496 25.1311C12.5294 25.1311 12.3203 25.0687 12.1222 24.944C11.9314 24.8192 11.7517 24.6505 11.5829 24.4377C11.4141 24.2249 11.26 23.9754 11.1206 23.6893C10.9812 23.4031 10.8565 23.0986 10.7464 22.7757C10.6437 23.0986 10.53 23.4031 10.4052 23.6893C10.2878 23.9754 10.1594 24.2249 10.02 24.4377C9.88059 24.6505 9.73017 24.8192 9.56874 24.944C9.40732 25.0687 9.23855 25.1311 9.06245 25.1311C8.76895 25.1311 8.50113 25.054 8.25899 24.9C8.02419 24.7385 7.8114 24.5257 7.62062 24.2616C7.42984 23.9974 7.26108 23.6893 7.11433 23.3371C6.96758 22.9849 6.83917 22.6143 6.72911 22.2254C6.61904 21.8365 6.52366 21.444 6.44294 21.0477C6.36957 20.6442 6.3072 20.2589 6.25584 19.8921C6.21181 19.5179 6.17879 19.1767 6.15678 18.8685C6.1421 18.553 6.13477 18.2925 6.13477 18.087C6.13477 17.8522 6.22282 17.6651 6.39892 17.5257C6.58236 17.3863 6.78781 17.3166 7.01527 17.3166C7.32345 17.3166 7.54725 17.3423 7.68666 17.3936C7.82607 17.4377 7.93614 17.5184 8.01685 17.6358C8.06087 17.7018 8.1049 17.8486 8.14892 18.076C8.19295 18.3035 8.23698 18.575 8.281 18.8905C8.32503 19.206 8.36538 19.5472 8.40207 19.9141C8.4461 20.2736 8.49012 20.6222 8.53415 20.9597C8.57817 21.2899 8.6222 21.587 8.66622 21.8512C8.71759 22.1154 8.76895 22.3025 8.82031 22.4125C9.01843 22.8601 9.19453 22.8271 9.34862 22.3135C9.37797 22.2107 9.40732 22.0456 9.43667 21.8182C9.46602 21.5907 9.49537 21.3302 9.52472 21.0367C9.55407 20.7432 9.58342 20.4351 9.61277 20.1122C9.64212 19.7893 9.67147 19.4885 9.70082 19.2097C9.73017 18.9309 9.75952 18.6887 9.78887 18.4833C9.81822 18.2778 9.84757 18.1457 9.87692 18.087H9.88793C9.93195 17.9036 10.02 17.7568 10.1521 17.6468C10.2915 17.5367 10.4566 17.4817 10.6474 17.4817C10.9262 17.4817 11.1206 17.511 11.2307 17.5697C11.3408 17.6211 11.4288 17.6981 11.4949 17.8009C11.5169 17.8302 11.5315 17.8596 11.5389 17.8889C11.5536 17.9109 11.5682 17.9366 11.5829 17.966C11.6343 18.0907 11.6783 18.2668 11.715 18.4943C11.759 18.7217 11.7994 18.9749 11.836 19.2537C11.8801 19.5325 11.9204 19.826 11.9571 20.1342C12.0011 20.4351 12.0452 20.7286 12.0892 21.0147C12.1332 21.2935 12.1809 21.554 12.2323 21.7962C12.291 22.0383 12.3533 22.2364 12.4194 22.3905C12.5368 22.64 12.6248 22.7574 12.6835 22.7427C12.7422 22.7207 12.8119 22.5813 12.8927 22.3245C12.922 22.2217 12.955 22.053 12.9917 21.8182C13.0284 21.576 13.0651 21.3009 13.1018 20.9927C13.1385 20.6772 13.1752 20.3507 13.2118 20.0131C13.2485 19.6683 13.2852 19.3491 13.3219 19.0556C13.3586 18.7547 13.3916 18.4979 13.421 18.2851C13.4503 18.065 13.476 17.9256 13.498 17.8669C13.5787 17.6468 13.6814 17.4964 13.8062 17.4156C13.9309 17.3276 14.118 17.2836 14.3675 17.2836Z" fill="#2C72FF"/>
<path d="M0 23.1832C0 23.007 0.0293502 22.853 0.0880507 22.7209C0.154089 22.5888 0.234802 22.4787 0.33019 22.3907C0.425578 22.2953 0.531973 22.2256 0.649374 22.1816C0.774112 22.1375 0.891513 22.1155 1.00158 22.1155C1.22904 22.1155 1.41615 22.1596 1.5629 22.2476C1.71699 22.3283 1.83439 22.4751 1.9151 22.6879C2.07653 23.1061 2.36636 23.3152 2.7846 23.3152C3.04142 23.3152 3.25788 23.2565 3.43398 23.1391C3.61008 23.0144 3.69813 22.8603 3.69813 22.6769C3.69813 22.5228 3.60641 22.4054 3.42297 22.3247C3.24687 22.2366 3.02674 22.1559 2.76259 22.0825C2.49844 22.0091 2.2086 21.9284 1.89309 21.8404C1.57757 21.745 1.28774 21.6166 1.02359 21.4552C0.759437 21.2937 0.535642 21.0809 0.352203 20.8168C0.176101 20.5526 0.0880507 20.2078 0.0880507 19.7822C0.0880507 19.4153 0.157757 19.0815 0.297171 18.7806C0.443922 18.4798 0.649374 18.223 0.913526 18.0102C1.17768 17.7974 1.50053 17.636 1.88208 17.5259C2.26364 17.4085 2.69288 17.3498 3.16982 17.3498C3.96228 17.3498 4.56029 17.5075 4.96386 17.8231C5.36742 18.1386 5.56921 18.5825 5.56921 19.1548C5.56921 19.485 5.48115 19.7272 5.30505 19.8812C5.12895 20.0353 4.90516 20.1124 4.63367 20.1124C4.36218 20.1124 4.16773 20.0647 4.05033 19.9693C3.93293 19.8739 3.8302 19.7198 3.74215 19.507C3.66878 19.3383 3.57706 19.2172 3.467 19.1438C3.35693 19.0631 3.21018 19.0228 3.02674 19.0228C2.79194 19.0228 2.60116 19.0778 2.45441 19.1879C2.30766 19.2906 2.23429 19.4153 2.23429 19.5621C2.23429 19.7088 2.31867 19.8262 2.48743 19.9143C2.66353 20.0023 2.88366 20.083 3.14781 20.1564C3.41196 20.2298 3.69446 20.3142 3.9953 20.4096C4.29614 20.5049 4.57864 20.637 4.84279 20.8058C5.10694 20.9745 5.3234 21.1947 5.49216 21.4662C5.66826 21.7303 5.75631 22.0788 5.75631 22.5118C5.75631 22.8933 5.68294 23.2382 5.53619 23.5464C5.39677 23.8545 5.19132 24.1187 4.91983 24.3388C4.65568 24.5589 4.32916 24.7277 3.94027 24.8451C3.55138 24.9625 3.11112 25.0212 2.61951 25.0212C2.20127 25.0212 1.82705 24.9735 1.49686 24.8781C1.17401 24.7827 0.902519 24.6543 0.682393 24.4929C0.462266 24.3241 0.293502 24.1297 0.176101 23.9096C0.0587005 23.6821 0 23.44 0 23.1832Z" fill="#2C72FF"/>
<path d="M57.1246 30.367L56.4375 28.6057H56.8874L57.3827 29.9764H57.292L57.7942 28.6057H58.1047L58.6034 29.9764H58.5232L59.015 28.6057H59.4405L58.7534 30.367H58.3697L57.8431 28.965H58.0279L57.5117 30.367H57.1246Z" fill="#242424"/>
<path d="M55.3991 30.4019C55.2178 30.4019 55.0608 30.3647 54.9283 30.2903C54.7958 30.2159 54.6923 30.1101 54.6179 29.9729C54.5458 29.8357 54.5098 29.6729 54.5098 29.4846C54.5098 29.2963 54.5458 29.1347 54.6179 28.9998C54.6923 28.8626 54.7958 28.7568 54.9283 28.6824C55.0608 28.608 55.2178 28.5708 55.3991 28.5708C55.5805 28.5708 55.7375 28.608 55.87 28.6824C56.0049 28.7568 56.1083 28.8626 56.1804 28.9998C56.2548 29.1347 56.292 29.2963 56.292 29.4846C56.292 29.6729 56.2548 29.8357 56.1804 29.9729C56.1083 30.1101 56.0049 30.2159 55.87 30.2903C55.7375 30.3647 55.5805 30.4019 55.3991 30.4019ZM55.3991 30.0671C55.5363 30.0671 55.6456 30.0194 55.727 29.9241C55.8084 29.8264 55.8491 29.6799 55.8491 29.4846C55.8491 29.2893 55.8084 29.144 55.727 29.0486C55.6456 28.9533 55.5363 28.9056 55.3991 28.9056C55.262 28.9056 55.1527 28.9533 55.0713 29.0486C54.9899 29.144 54.9492 29.2893 54.9492 29.4846C54.9492 29.6799 54.9899 29.8264 55.0713 29.9241C55.1527 30.0194 55.262 30.0671 55.3991 30.0671Z" fill="#242424"/>
<path d="M53.2607 30.367V29.0556C53.2607 28.9812 53.2584 28.9056 53.2538 28.8289C53.2514 28.7522 53.2456 28.6778 53.2363 28.6057H53.6584L53.7072 29.087H53.6374C53.6607 28.9707 53.699 28.8742 53.7525 28.7975C53.8083 28.7208 53.8758 28.6638 53.9548 28.6266C54.0339 28.5894 54.1199 28.5708 54.2129 28.5708C54.2548 28.5708 54.2885 28.5731 54.3141 28.5778C54.3396 28.5801 54.3652 28.5859 54.3908 28.5952L54.3873 28.9789C54.3431 28.9603 54.3048 28.9486 54.2722 28.944C54.242 28.9393 54.2036 28.937 54.1571 28.937C54.0571 28.937 53.9723 28.9579 53.9025 28.9998C53.8351 29.0417 53.7839 29.0998 53.749 29.1742C53.7165 29.2486 53.7002 29.3335 53.7002 29.4288V30.367H53.2607Z" fill="#242424"/>
<path d="M51.9028 30.4021C51.6261 30.4021 51.3936 30.3509 51.2052 30.2486C51.0169 30.1463 50.875 30.001 50.7797 29.8126C50.6844 29.6243 50.6367 29.4011 50.6367 29.143C50.6367 28.8825 50.6879 28.6582 50.7902 28.4698C50.8925 28.2792 51.039 28.1327 51.2296 28.0304C51.4226 27.9257 51.654 27.8734 51.9237 27.8734C52.1028 27.8734 52.2597 27.8978 52.3946 27.9467C52.5294 27.9932 52.648 28.0618 52.7503 28.1524L52.6003 28.5012C52.5259 28.4431 52.455 28.3966 52.3876 28.3617C52.3202 28.3268 52.2504 28.3024 52.1783 28.2885C52.1062 28.2722 52.0225 28.264 51.9272 28.264C51.6575 28.264 51.4529 28.3408 51.3133 28.4942C51.1762 28.6454 51.1076 28.8628 51.1076 29.1465C51.1076 29.4301 51.1727 29.6464 51.3029 29.7952C51.4354 29.944 51.6424 30.0184 51.9237 30.0184C52.019 30.0184 52.1144 30.0091 52.2097 29.9905C52.3074 29.9719 52.4027 29.9452 52.4957 29.9103L52.412 30.0986V29.3627H51.8365V29.0348H52.7852V30.2172C52.6713 30.2753 52.5352 30.3207 52.3771 30.3532C52.219 30.3858 52.0609 30.4021 51.9028 30.4021Z" fill="#242424"/>
<path d="M49.0233 30.8309L48.8454 30.6914C48.9198 30.6146 48.971 30.5426 48.9989 30.4751C49.0291 30.41 49.0442 30.3403 49.0442 30.2659L49.1384 30.367H48.8105V29.8822H49.2988V30.2031C49.2988 30.3217 49.2779 30.4298 49.2361 30.5274C49.1965 30.6274 49.1256 30.7286 49.0233 30.8309Z" fill="#242424"/>
<path d="M46.7584 30.367V29.0451C46.7584 28.9731 46.756 28.8998 46.7514 28.8254C46.7467 28.751 46.7398 28.6778 46.7305 28.6057H47.1525L47.1874 28.9545H47.1455C47.2013 28.8312 47.2839 28.7371 47.3931 28.6719C47.5024 28.6045 47.6292 28.5708 47.7733 28.5708C47.9803 28.5708 48.136 28.6289 48.2407 28.7452C48.3453 28.8614 48.3976 29.0428 48.3976 29.2893V30.367H47.9617V29.3102C47.9617 29.1684 47.9338 29.0672 47.878 29.0068C47.8245 28.944 47.7431 28.9126 47.6338 28.9126C47.4989 28.9126 47.392 28.9545 47.3129 29.0382C47.2339 29.1219 47.1943 29.2335 47.1943 29.373V30.367H46.7584Z" fill="#242424"/>
<path d="M45.3838 30.367V29.0556C45.3838 28.9812 45.3815 28.9056 45.3768 28.8289C45.3745 28.7522 45.3687 28.6778 45.3594 28.6057H45.7814L45.8302 29.087H45.7605C45.7837 28.9707 45.8221 28.8742 45.8756 28.7975C45.9314 28.7208 45.9988 28.6638 46.0779 28.6266C46.1569 28.5894 46.2429 28.5708 46.336 28.5708C46.3778 28.5708 46.4115 28.5731 46.4371 28.5778C46.4627 28.5801 46.4883 28.5859 46.5138 28.5952L46.5103 28.9789C46.4662 28.9603 46.4278 28.9486 46.3952 28.944C46.365 28.9393 46.3267 28.937 46.2802 28.937C46.1802 28.937 46.0953 28.9579 46.0255 28.9998C45.9581 29.0417 45.907 29.0998 45.8721 29.1742C45.8395 29.2486 45.8233 29.3335 45.8233 29.4288V30.367H45.3838Z" fill="#242424"/>
<path d="M43.9051 30.4019C43.7517 30.4019 43.6168 30.3658 43.5006 30.2938C43.3843 30.2194 43.2936 30.1136 43.2285 29.9764C43.1634 29.8392 43.1309 29.6753 43.1309 29.4846C43.1309 29.2939 43.1634 29.1312 43.2285 28.9963C43.2936 28.8591 43.3843 28.7545 43.5006 28.6824C43.6168 28.608 43.7517 28.5708 43.9051 28.5708C44.054 28.5708 44.1842 28.608 44.2958 28.6824C44.4097 28.7545 44.4853 28.8521 44.5225 28.9754H44.4841L44.5225 28.6057H44.941C44.934 28.6778 44.9271 28.751 44.9201 28.8254C44.9154 28.8998 44.9131 28.9731 44.9131 29.0451V30.367H44.4806L44.4771 30.0043H44.519C44.4818 30.1252 44.4062 30.2217 44.2923 30.2938C44.1784 30.3658 44.0493 30.4019 43.9051 30.4019ZM44.0272 30.0671C44.1644 30.0671 44.2749 30.0194 44.3586 29.9241C44.4423 29.8264 44.4841 29.6799 44.4841 29.4846C44.4841 29.2893 44.4423 29.144 44.3586 29.0486C44.2749 28.9533 44.1644 28.9056 44.0272 28.9056C43.89 28.9056 43.7796 28.9533 43.6959 29.0486C43.6122 29.144 43.5703 29.2893 43.5703 29.4846C43.5703 29.6799 43.611 29.8264 43.6924 29.9241C43.7761 30.0194 43.8877 30.0671 44.0272 30.0671Z" fill="#242424"/>
<path d="M41.2031 30.367V27.9081H42.8598V28.2604H41.6356V28.9405H42.7796V29.2963H41.6356V30.0113H42.8598V30.367H41.2031Z" fill="#242424"/>
<path d="M39.5096 30.8309L39.3318 30.6914C39.4062 30.6147 39.4573 30.5426 39.4852 30.4752C39.5154 30.4101 39.5306 30.3403 39.5306 30.2659L39.6247 30.3671H39.2969V29.8823H39.7852V30.2031C39.7852 30.3217 39.7642 30.4298 39.7224 30.5275C39.6829 30.6275 39.6119 30.7286 39.5096 30.8309Z" fill="#242424"/>
<path d="M37.5843 31.1588L37.4831 30.8135C37.5924 30.7902 37.6842 30.7635 37.7587 30.7333C37.8331 30.703 37.8947 30.6635 37.9435 30.6147C37.9923 30.5658 38.033 30.5031 38.0656 30.4263L38.1528 30.2206L38.1423 30.3915L37.375 28.6057H37.8389L38.3899 29.9799H38.2888L38.8434 28.6057H39.2828L38.4806 30.4647C38.4271 30.5903 38.369 30.6937 38.3062 30.7751C38.2435 30.8588 38.176 30.9251 38.1039 30.9739C38.0319 31.0251 37.9528 31.0646 37.8668 31.0925C37.7807 31.1204 37.6866 31.1425 37.5843 31.1588Z" fill="#242424"/>
<path d="M36.709 30.367V27.8H37.145V30.367H36.709Z" fill="#242424"/>
<path d="M35.8008 30.367V27.8H36.2368V30.367H35.8008Z" fill="#242424"/>
<path d="M34.3192 30.4019C34.1657 30.4019 34.0309 30.3658 33.9146 30.2938C33.7984 30.2194 33.7077 30.1136 33.6426 29.9764C33.5775 29.8392 33.5449 29.6753 33.5449 29.4846C33.5449 29.2939 33.5775 29.1312 33.6426 28.9963C33.7077 28.8591 33.7984 28.7545 33.9146 28.6824C34.0309 28.608 34.1657 28.5708 34.3192 28.5708C34.468 28.5708 34.5982 28.608 34.7098 28.6824C34.8238 28.7545 34.8993 28.8521 34.9365 28.9754H34.8982L34.9365 28.6057H35.3551C35.3481 28.6778 35.3411 28.751 35.3342 28.8254C35.3295 28.8998 35.3272 28.9731 35.3272 29.0451V30.367H34.8947L34.8912 30.0043H34.9331C34.8959 30.1252 34.8203 30.2217 34.7064 30.2938C34.5924 30.3658 34.4634 30.4019 34.3192 30.4019ZM34.4413 30.0671C34.5785 30.0671 34.6889 30.0194 34.7726 29.9241C34.8563 29.8264 34.8982 29.6799 34.8982 29.4846C34.8982 29.2893 34.8563 29.144 34.7726 29.0486C34.6889 28.9533 34.5785 28.9056 34.4413 28.9056C34.3041 28.9056 34.1936 28.9533 34.1099 29.0486C34.0262 29.144 33.9844 29.2893 33.9844 29.4846C33.9844 29.6799 34.0251 29.8264 34.1065 29.9241C34.1902 30.0194 34.3018 30.0671 34.4413 30.0671Z" fill="#242424"/>
<path d="M32.196 30.4019C31.9798 30.4019 31.8182 30.3426 31.7112 30.224C31.6043 30.1055 31.5508 29.9241 31.5508 29.68V28.6057H31.9868V29.6765C31.9868 29.8067 32.0135 29.9032 32.067 29.9659C32.1205 30.0264 32.2018 30.0566 32.3111 30.0566C32.4344 30.0566 32.5343 30.0148 32.6111 29.9311C32.6901 29.8474 32.7297 29.7369 32.7297 29.5997V28.6057H33.1656V30.367H32.7401V30.0078H32.7889C32.7378 30.1334 32.6599 30.231 32.5553 30.3008C32.453 30.3682 32.3332 30.4019 32.196 30.4019Z" fill="#242424"/>
<path d="M30.9926 30.4017C30.7834 30.4017 30.6252 30.347 30.5183 30.2378C30.4113 30.1285 30.3578 29.9646 30.3578 29.746V28.9333H30.0195V28.6055H30.3578V28.1556L30.7938 28.0439V28.6055H31.2647V28.9333H30.7938V29.7181C30.7938 29.839 30.8171 29.9239 30.8636 29.9727C30.9101 30.0215 30.974 30.0459 31.0554 30.0459C31.0996 30.0459 31.1368 30.0424 31.167 30.0355C31.1996 30.0285 31.231 30.0192 31.2612 30.0076V30.3529C31.2217 30.3691 31.1775 30.3808 31.1286 30.3877C31.0821 30.397 31.0368 30.4017 30.9926 30.4017Z" fill="#242424"/>
<path d="M28.7666 30.367V29.0556C28.7666 28.9812 28.7643 28.9056 28.7596 28.8289C28.7573 28.7522 28.7515 28.6778 28.7422 28.6057H29.1642L29.213 29.087H29.1433C29.1665 28.9707 29.2049 28.8742 29.2584 28.7975C29.3142 28.7208 29.3816 28.6638 29.4607 28.6266C29.5397 28.5894 29.6258 28.5708 29.7188 28.5708C29.7606 28.5708 29.7943 28.5731 29.8199 28.5778C29.8455 28.5801 29.8711 28.5859 29.8966 28.5952L29.8932 28.9789C29.849 28.9603 29.8106 28.9486 29.7781 28.944C29.7478 28.9393 29.7095 28.937 29.663 28.937C29.563 28.937 29.4781 28.9579 29.4084 28.9998C29.3409 29.0417 29.2898 29.0998 29.2549 29.1742C29.2223 29.2486 29.2061 29.3335 29.2061 29.4288V30.367H28.7666Z" fill="#242424"/>
<path d="M27.8623 30.3671V28.6057H28.2983V30.3671H27.8623ZM27.8379 28.2744V27.8489H28.3227V28.2744H27.8379Z" fill="#242424"/>
<path d="M26.4791 30.367L25.7188 28.6057H26.1826L26.7337 29.9834H26.6256L27.1906 28.6057H27.6266L26.8627 30.367H26.4791Z" fill="#242424"/>
<path d="M23.9471 30.4019C23.6518 30.4019 23.4205 30.3205 23.2531 30.1577C23.0857 29.995 23.002 29.7718 23.002 29.4881C23.002 29.3044 23.038 29.144 23.1101 29.0068C23.1822 28.8696 23.2821 28.7626 23.41 28.6859C23.5402 28.6092 23.6914 28.5708 23.8634 28.5708C24.0332 28.5708 24.175 28.6068 24.2889 28.6789C24.4029 28.751 24.4889 28.8521 24.547 28.9824C24.6075 29.1126 24.6377 29.2649 24.6377 29.4393V29.5544H23.3542V29.3242H24.3273L24.268 29.373C24.268 29.2102 24.2331 29.0858 24.1634 28.9998C24.096 28.9138 23.9971 28.8708 23.8669 28.8708C23.7228 28.8708 23.6112 28.9219 23.5321 29.0242C23.4554 29.1265 23.417 29.2695 23.417 29.4532V29.4986C23.417 29.6892 23.4635 29.8322 23.5565 29.9275C23.6518 30.0206 23.7855 30.0671 23.9576 30.0671C24.0576 30.0671 24.1506 30.0543 24.2366 30.0287C24.325 30.0008 24.4087 29.9566 24.4878 29.8962L24.6168 30.1891C24.5331 30.2566 24.4331 30.3089 24.3168 30.3461C24.2006 30.3833 24.0774 30.4019 23.9471 30.4019Z" fill="#242424"/>
<path d="M21.6157 30.4019C21.4622 30.4019 21.3262 30.3658 21.2076 30.2938C21.0913 30.2193 21.0007 30.1136 20.9356 29.9764C20.8704 29.8392 20.8379 29.6753 20.8379 29.4846C20.8379 29.2939 20.8704 29.1312 20.9356 28.9963C21.0007 28.8591 21.0913 28.7545 21.2076 28.6824C21.3262 28.608 21.4622 28.5708 21.6157 28.5708C21.7622 28.5708 21.8912 28.6068 22.0028 28.6789C22.1167 28.7487 22.1923 28.844 22.2295 28.9649H22.1842V27.8H22.6201V30.367H22.1912V29.9938H22.233C22.1958 30.1194 22.1202 30.2193 22.0063 30.2938C21.8947 30.3658 21.7645 30.4019 21.6157 30.4019ZM21.7377 30.067C21.8749 30.067 21.9854 30.0194 22.0691 29.924C22.1528 29.8264 22.1946 29.6799 22.1946 29.4846C22.1946 29.2893 22.1528 29.1439 22.0691 29.0486C21.9854 28.9533 21.8749 28.9056 21.7377 28.9056C21.6006 28.9056 21.4889 28.9533 21.4029 29.0486C21.3192 29.1439 21.2774 29.2893 21.2774 29.4846C21.2774 29.6799 21.3192 29.8264 21.4029 29.924C21.4889 30.0194 21.6006 30.067 21.7377 30.067Z" fill="#242424"/>
<path d="M19.6648 30.4019C19.4834 30.4019 19.3265 30.3647 19.1939 30.2903C19.0614 30.2159 18.9579 30.1101 18.8835 29.9729C18.8114 29.8357 18.7754 29.6729 18.7754 29.4846C18.7754 29.2963 18.8114 29.1347 18.8835 28.9998C18.9579 28.8626 19.0614 28.7568 19.1939 28.6824C19.3265 28.608 19.4834 28.5708 19.6648 28.5708C19.8461 28.5708 20.0031 28.608 20.1356 28.6824C20.2705 28.7568 20.374 28.8626 20.446 28.9998C20.5204 29.1347 20.5576 29.2963 20.5576 29.4846C20.5576 29.6729 20.5204 29.8357 20.446 29.9729C20.374 30.1101 20.2705 30.2159 20.1356 30.2903C20.0031 30.3647 19.8461 30.4019 19.6648 30.4019ZM19.6648 30.0671C19.802 30.0671 19.9112 30.0194 19.9926 29.9241C20.074 29.8264 20.1147 29.6799 20.1147 29.4846C20.1147 29.2893 20.074 29.144 19.9926 29.0486C19.9112 28.9533 19.802 28.9056 19.6648 28.9056C19.5276 28.9056 19.4183 28.9533 19.3369 29.0486C19.2555 29.144 19.2149 29.2893 19.2149 29.4846C19.2149 29.6799 19.2555 29.8264 19.3369 29.9241C19.4183 30.0194 19.5276 30.0671 19.6648 30.0671Z" fill="#242424"/>
<path d="M17.7828 30.4021C17.527 30.4021 17.3073 30.3509 17.1236 30.2486C16.9423 30.144 16.8027 29.9975 16.7051 29.8091C16.6074 29.6185 16.5586 29.3941 16.5586 29.136C16.5586 28.8779 16.6074 28.6547 16.7051 28.4663C16.8027 28.278 16.9423 28.1327 17.1236 28.0304C17.3073 27.9257 17.527 27.8734 17.7828 27.8734C17.9549 27.8734 18.1095 27.8978 18.2467 27.9467C18.3862 27.9955 18.5059 28.0676 18.6059 28.1629L18.4594 28.5187C18.3502 28.4303 18.2444 28.3675 18.142 28.3303C18.0421 28.2908 17.927 28.271 17.7968 28.271C17.548 28.271 17.3573 28.3466 17.2248 28.4977C17.0946 28.6465 17.0294 28.8593 17.0294 29.136C17.0294 29.4127 17.0946 29.6266 17.2248 29.7777C17.3573 29.9289 17.548 30.0044 17.7968 30.0044C17.927 30.0044 18.0421 29.9858 18.142 29.9486C18.2444 29.9091 18.3502 29.844 18.4594 29.7533L18.6059 30.1091C18.5059 30.2021 18.3862 30.2742 18.2467 30.3253C18.1095 30.3765 17.9549 30.4021 17.7828 30.4021Z" fill="#242424"/>
<defs>
<filter id="filter0_i_566_8486" x="26.8711" y="0.841309" width="22.4219" height="12.4564" filterUnits="userSpaceOnUse" color-interpolation-filters="sRGB">
<feFlood flood-opacity="0" result="BackgroundImageFix"/>
<feBlend mode="normal" in="SourceGraphic" in2="BackgroundImageFix" result="shape"/>
<feColorMatrix in="SourceAlpha" type="matrix" values="0 0 0 0 0 0 0 0 0 0 0 0 0 0 0 0 0 0 127 0" result="hardAlpha"/>
<feOffset dx="-1.49476"/>
<feComposite in2="hardAlpha" operator="arithmetic" k2="-1" k3="1"/>
<feColorMatrix type="matrix" values="0 0 0 0 0 0 0 0 0 0 0 0 0 0 0 0 0 0 0.1 0"/>
<feBlend mode="normal" in2="shape" result="effect1_innerShadow_566_8486"/>
</filter>
<filter id="filter1_d_566_8486" x="28.4812" y="1.83158" width="19.474" height="11.2232" filterUnits="userSpaceOnUse" color-interpolation-filters="sRGB">
<feFlood flood-opacity="0" result="BackgroundImageFix"/>
<feColorMatrix in="SourceAlpha" type="matrix" values="0 0 0 0 0 0 0 0 0 0 0 0 0 0 0 0 0 0 127 0" result="hardAlpha"/>
<feOffset dx="0.435973" dy="0.373691"/>
<feGaussianBlur stdDeviation="0.657073"/>
<feComposite in2="hardAlpha" operator="out"/>
<feColorMatrix type="matrix" values="0 0 0 0 0 0 0 0 0 0 0 0 0 0 0 0 0 0 0.25 0"/>
<feBlend mode="normal" in2="BackgroundImageFix" result="effect1_dropShadow_566_8486"/>
<feBlend mode="normal" in="SourceGraphic" in2="effect1_dropShadow_566_8486" result="shape"/>
</filter>
</defs>
</svg>
